<?xml version="1.0" encoding="UTF-8" standalone="no"?>
<!-- Created with Inkscape (http://www.inkscape.org/) -->
<svg
   xmlns:dc="http://purl.org/dc/elements/1.1/"
   xmlns:cc="http://creativecommons.org/ns#"
   xmlns:rdf="http://www.w3.org/1999/02/22-rdf-syntax-ns#"
   xmlns:svg="http://www.w3.org/2000/svg"
   xmlns="http://www.w3.org/2000/svg"
   xmlns:xlink="http://www.w3.org/1999/xlink"
   xmlns:sodipodi="http://sodipodi.sourceforge.net/DTD/sodipodi-0.dtd"
   xmlns:inkscape="http://www.inkscape.org/namespaces/inkscape"
   width="128"
   height="128"
   id="svg3134"
   sodipodi:version="0.32"
   inkscape:version="0.46"
   version="1.0"
   sodipodi:docname="disable.svg"
   inkscape:output_extension="org.inkscape.output.svg.inkscape">
  <defs
     id="defs3136">
    <filter
       inkscape:collect="always"
       id="filter3992">
      <feGaussianBlur
         inkscape:collect="always"
         stdDeviation="0.91666722"
         id="feGaussianBlur3994" />
    </filter>
    <linearGradient
       id="linearGradient3551">
      <stop
         id="stop3553"
         style="stop-color:#bf0000;stop-opacity:1"
         offset="0" />
      <stop
         id="stop3555"
         style="stop-color:#8c0000;stop-opacity:1"
         offset="1" />
    </linearGradient>
    <linearGradient
       inkscape:collect="always"
       xlink:href="#linearGradient3551"
       id="linearGradient3899"
       x1="71.497643"
       y1="57.353218"
       x2="71.497643"
       y2="163.88264"
       gradientUnits="userSpaceOnUse"
       gradientTransform="translate(286,422.36218)" />
    <filter
       height="1.2074844"
       y="-0.10374219"
       width="1.1734999"
       x="-0.086749934"
       id="filter4176">
      <feGaussianBlur
         id="feGaussianBlur4178"
         stdDeviation="1.3102854"
         inkscape:collect="always" />
    </filter>
    <radialGradient
       inkscape:collect="always"
       xlink:href="#linearGradient3260-778"
       id="radialGradient3446"
       gradientUnits="userSpaceOnUse"
       gradientTransform="matrix(0.383106,0.3947293,-1.3121017,1.2734652,-149.51024,248.31073)"
       cx="-830.375"
       cy="275.74124"
       fx="-830.375"
       fy="275.74124"
       r="18.125" />
    <filter
       height="1.5161119"
       y="-0.25805596"
       width="1.1086627"
       x="-0.05433137"
       id="filter4248">
      <feGaussianBlur
         id="feGaussianBlur4250"
         stdDeviation="0.66853052"
         inkscape:collect="always" />
    </filter>
    <radialGradient
       inkscape:collect="always"
       xlink:href="#linearGradient3598"
       id="radialGradient3444"
       gradientUnits="userSpaceOnUse"
       gradientTransform="matrix(1,-5.9653348e-8,1.4682541e-7,2.4613106,-4.8987084e-5,-487.55424)"
       cx="-825.2254"
       cy="337.20309"
       fx="-825.2254"
       fy="337.20309"
       r="14.765625" />
    <filter
       height="1.2557172"
       y="-0.12785856"
       width="1.0808311"
       x="-0.040415537"
       id="filter4202">
      <feGaussianBlur
         id="feGaussianBlur4204"
         stdDeviation="0.59781314"
         inkscape:collect="always" />
    </filter>
    <linearGradient
       id="linearGradient3706">
      <stop
         id="stop3708"
         style="stop-color:#ffffff;stop-opacity:1"
         offset="0" />
      <stop
         id="stop3710"
         style="stop-color:#ffffff;stop-opacity:0"
         offset="1" />
    </linearGradient>
    <radialGradient
       inkscape:collect="always"
       xlink:href="#linearGradient3706"
       id="radialGradient3442"
       gradientUnits="userSpaceOnUse"
       gradientTransform="matrix(1,0,0,0.3160957,0,222.83692)"
       cx="-825.97125"
       cy="315.76404"
       fx="-825.97125"
       fy="315.76404"
       r="17.75" />
    <filter
       id="filter4134">
      <feGaussianBlur
         id="feGaussianBlur4136"
         stdDeviation="0.28743233"
         inkscape:collect="always" />
    </filter>
    <linearGradient
       id="linearGradient3835">
      <stop
         id="stop3837"
         style="stop-color:#ffffff;stop-opacity:1"
         offset="0" />
      <stop
         id="stop3839"
         style="stop-color:#ffffff;stop-opacity:0"
         offset="1" />
    </linearGradient>
    <radialGradient
       inkscape:collect="always"
       xlink:href="#linearGradient3835"
       id="radialGradient3440"
       gradientUnits="userSpaceOnUse"
       gradientTransform="matrix(1,7.1693163e-7,-7.7186683e-7,1.0766255,1.795441e-4,-17.823295)"
       cx="-824.58069"
       cy="232.61047"
       fx="-824.58069"
       fy="232.61047"
       r="23.9375" />
    <clipPath
       id="clipPath4258">
      <path
         d="M -826.90422,227.34375 C -858.62937,227.34375 -884.43547,253.14985 -884.43547,284.875 C -884.43547,316.60015 -858.62937,342.40625 -826.90422,342.40625 C -795.17907,342.40625 -769.34172,316.60015 -769.34172,284.875 C -769.34172,253.14985 -795.17907,227.34375 -826.90422,227.34375 z M -826.90422,245.65625 C -819.86019,245.65625 -813.29975,247.56932 -807.59172,250.8125 L -860.96672,304.1875 C -864.2099,298.47948 -866.12297,291.91903 -866.12297,284.875 C -866.12297,263.18697 -848.59225,245.65625 -826.90422,245.65625 z M -791.34172,268.4375 C -789.0134,273.43966 -787.68547,278.99177 -787.68547,284.875 C -787.68547,306.56303 -805.2162,324.09375 -826.90422,324.09375 C -832.78745,324.09376 -838.33957,322.76582 -843.34172,320.4375 L -791.34172,268.4375 z"
         id="path4260"
         style="opacity:1;fill:url(#linearGradient4262);fill-opacity:1;stroke:none;stroke-width:7.08661413;stroke-linecap:square;stroke-linejoin:miter;stroke-miterlimit:4;stroke-dasharray:none;stroke-dashoffset:4.15;stroke-opacity:1" />
    </clipPath>
    <linearGradient
       id="linearGradient3527">
      <stop
         id="stop3529"
         style="stop-color:#ff0000;stop-opacity:1"
         offset="0" />
      <stop
         id="stop3531"
         style="stop-color:#7f0000;stop-opacity:1"
         offset="1" />
    </linearGradient>
    <radialGradient
       inkscape:collect="always"
       xlink:href="#linearGradient3527"
       id="radialGradient3477"
       gradientUnits="userSpaceOnUse"
       gradientTransform="matrix(1.1100945,0,0,1.3397706,437.96339,447.37569)"
       cx="-79.25"
       cy="81.75"
       fx="-79.25"
       fy="81.75"
       r="43.5" />
    <linearGradient
       id="linearGradient3598">
      <stop
         id="stop3600"
         style="stop-color:#ffbfbf;stop-opacity:1"
         offset="0" />
      <stop
         id="stop3602"
         style="stop-color:#ffbfbf;stop-opacity:0"
         offset="1" />
    </linearGradient>
    <linearGradient
       inkscape:collect="always"
       xlink:href="#linearGradient3598"
       id="linearGradient3474"
       gradientUnits="userSpaceOnUse"
       gradientTransform="matrix(0.8754888,0,0,0.87554,419.37089,489.34381)"
       x1="-89.75"
       y1="-28.999977"
       x2="-73.8125"
       y2="76.000023" />
    <linearGradient
       inkscape:collect="always"
       xlink:href="#linearGradient3260-778"
       id="linearGradient3471"
       gradientUnits="userSpaceOnUse"
       gradientTransform="matrix(0.8754888,0,0,0.87554,419.1231,489.15762)"
       x1="-89.75"
       y1="-28.999977"
       x2="-73.8125"
       y2="76.000023" />
    <linearGradient
       id="linearGradient3260-778">
      <stop
         id="stop2489"
         style="stop-color:#ffffff;stop-opacity:1"
         offset="0" />
      <stop
         id="stop2491"
         style="stop-color:#ffffff;stop-opacity:0"
         offset="1" />
    </linearGradient>
    <linearGradient
       inkscape:collect="always"
       xlink:href="#linearGradient3260-778"
       id="linearGradient3467"
       gradientUnits="userSpaceOnUse"
       gradientTransform="matrix(0.8754888,0,0,0.87554,419.20602,489.24517)"
       x1="-13.20569"
       y1="84.70369"
       x2="-84.772652"
       y2="19.43148" />
    <filter
       inkscape:collect="always"
       id="filter4076">
      <feGaussianBlur
         inkscape:collect="always"
         stdDeviation="0.27544051"
         id="feGaussianBlur4078" />
    </filter>
    <linearGradient
       inkscape:collect="always"
       xlink:href="#linearGradient2929"
       id="linearGradient3456"
       gradientUnits="userSpaceOnUse"
       gradientTransform="translate(75.660426,5.6568543)"
       x1="4.3614073"
       y1="339.1261"
       x2="7.3560495"
       y2="232.5502" />
    <filter
       id="filter4055">
      <feGaussianBlur
         id="feGaussianBlur4057"
         stdDeviation="0.16412598"
         inkscape:collect="always" />
    </filter>
    <linearGradient
       id="linearGradient2929">
      <stop
         id="stop2931"
         style="stop-color:#efcb40;stop-opacity:1"
         offset="0" />
      <stop
         id="stop2933"
         style="stop-color:#c0a331;stop-opacity:0"
         offset="1" />
    </linearGradient>
    <linearGradient
       inkscape:collect="always"
       xlink:href="#linearGradient2929"
       id="linearGradient3460"
       gradientUnits="userSpaceOnUse"
       gradientTransform="translate(75.660426,5.6568543)"
       x1="4.3614073"
       y1="339.1261"
       x2="7.3560495"
       y2="232.5502" />
    <linearGradient
       inkscape:collect="always"
       xlink:href="#linearGradient3918"
       id="linearGradient3924"
       x1="32.785671"
       y1="27.651901"
       x2="71.352135"
       y2="66.218399"
       gradientUnits="userSpaceOnUse"
       gradientTransform="matrix(0.7721664,0,0,0.7721657,300.52171,482.88395)" />
    <linearGradient
       inkscape:collect="always"
       id="linearGradient3909">
      <stop
         style="stop-color:#430000;stop-opacity:1"
         offset="0"
         id="stop3911" />
      <stop
         style="stop-color:#8a0000;stop-opacity:1"
         offset="1"
         id="stop3913" />
    </linearGradient>
    <linearGradient
       inkscape:collect="always"
       xlink:href="#linearGradient3909"
       id="linearGradient3915"
       x1="69.591736"
       y1="101.80757"
       x2="69.754745"
       y2="18.672716"
       gradientUnits="userSpaceOnUse" />
    <linearGradient
       inkscape:collect="always"
       id="linearGradient3918">
      <stop
         style="stop-color:#590000;stop-opacity:1;"
         offset="0"
         id="stop3920" />
      <stop
         style="stop-color:#ff3a3a;stop-opacity:1"
         offset="1"
         id="stop3922" />
    </linearGradient>
    <linearGradient
       inkscape:collect="always"
       xlink:href="#linearGradient3918"
       id="linearGradient3928"
       gradientUnits="userSpaceOnUse"
       x1="32.785671"
       y1="27.651901"
       x2="27.373034"
       y2="22.759722"
       gradientTransform="matrix(-0.7721664,0,0,-0.7721657,399.94894,581.56095)" />
    <inkscape:perspective
       sodipodi:type="inkscape:persp3d"
       inkscape:vp_x="0 : 526.18109 : 1"
       inkscape:vp_y="0 : 1000 : 0"
       inkscape:vp_z="744.09448 : 526.18109 : 1"
       inkscape:persp3d-origin="372.04724 : 350.78739 : 1"
       id="perspective3142" />
    <linearGradient
       inkscape:collect="always"
       xlink:href="#linearGradient3551"
       id="linearGradient3235"
       gradientUnits="userSpaceOnUse"
       gradientTransform="translate(286,422.36218)"
       x1="71.497643"
       y1="57.353218"
       x2="71.497643"
       y2="163.88264" />
    <radialGradient
       inkscape:collect="always"
       xlink:href="#linearGradient3835"
       id="radialGradient3237"
       gradientUnits="userSpaceOnUse"
       gradientTransform="matrix(1,7.1693163e-7,-7.7186683e-7,1.0766255,1.795441e-4,-17.823295)"
       cx="-824.58069"
       cy="232.61047"
       fx="-824.58069"
       fy="232.61047"
       r="23.9375" />
    <radialGradient
       inkscape:collect="always"
       xlink:href="#linearGradient3706"
       id="radialGradient3239"
       gradientUnits="userSpaceOnUse"
       gradientTransform="matrix(1,0,0,0.3160957,0,222.83692)"
       cx="-825.97125"
       cy="315.76404"
       fx="-825.97125"
       fy="315.76404"
       r="17.75" />
    <radialGradient
       inkscape:collect="always"
       xlink:href="#linearGradient3598"
       id="radialGradient3241"
       gradientUnits="userSpaceOnUse"
       gradientTransform="matrix(1,-5.9653348e-8,1.4682541e-7,2.4613106,-4.8987084e-5,-487.55424)"
       cx="-825.2254"
       cy="337.20309"
       fx="-825.2254"
       fy="337.20309"
       r="14.765625" />
    <radialGradient
       inkscape:collect="always"
       xlink:href="#linearGradient3260-778"
       id="radialGradient3243"
       gradientUnits="userSpaceOnUse"
       gradientTransform="matrix(0.383106,0.3947293,-1.3121017,1.2734652,-149.51024,248.31073)"
       cx="-830.375"
       cy="275.74124"
       fx="-830.375"
       fy="275.74124"
       r="18.125" />
    <radialGradient
       inkscape:collect="always"
       xlink:href="#linearGradient3527"
       id="radialGradient3245"
       gradientUnits="userSpaceOnUse"
       gradientTransform="matrix(1.1100945,0,0,1.3397706,437.96339,447.37569)"
       cx="-79.25"
       cy="81.75"
       fx="-79.25"
       fy="81.75"
       r="43.5" />
    <linearGradient
       inkscape:collect="always"
       xlink:href="#linearGradient3598"
       id="linearGradient3247"
       gradientUnits="userSpaceOnUse"
       gradientTransform="matrix(0.8754888,0,0,0.87554,419.37089,489.34381)"
       x1="-89.75"
       y1="-28.999977"
       x2="-73.8125"
       y2="76.000023" />
    <linearGradient
       inkscape:collect="always"
       xlink:href="#linearGradient3260-778"
       id="linearGradient3249"
       gradientUnits="userSpaceOnUse"
       gradientTransform="matrix(0.8754888,0,0,0.87554,419.1231,489.15762)"
       x1="-89.75"
       y1="-28.999977"
       x2="-73.8125"
       y2="76.000023" />
    <linearGradient
       inkscape:collect="always"
       xlink:href="#linearGradient3260-778"
       id="linearGradient3251"
       gradientUnits="userSpaceOnUse"
       gradientTransform="matrix(0.8754888,0,0,0.87554,419.20602,489.24517)"
       x1="-13.20569"
       y1="84.70369"
       x2="-84.772652"
       y2="19.43148" />
    <linearGradient
       inkscape:collect="always"
       xlink:href="#linearGradient2929"
       id="linearGradient3253"
       gradientUnits="userSpaceOnUse"
       gradientTransform="translate(75.660426,5.6568543)"
       x1="4.3614073"
       y1="339.1261"
       x2="7.3560495"
       y2="232.5502" />
    <linearGradient
       inkscape:collect="always"
       xlink:href="#linearGradient2929"
       id="linearGradient3255"
       gradientUnits="userSpaceOnUse"
       gradientTransform="translate(75.660426,5.6568543)"
       x1="4.3614073"
       y1="339.1261"
       x2="7.3560495"
       y2="232.5502" />
    <linearGradient
       inkscape:collect="always"
       xlink:href="#linearGradient3918"
       id="linearGradient3257"
       gradientUnits="userSpaceOnUse"
       gradientTransform="matrix(0.7721664,0,0,0.7721657,300.52171,482.88395)"
       x1="32.785671"
       y1="27.651901"
       x2="71.352135"
       y2="66.218399" />
    <linearGradient
       inkscape:collect="always"
       xlink:href="#linearGradient3909"
       id="linearGradient3259"
       gradientUnits="userSpaceOnUse"
       x1="69.591736"
       y1="101.80757"
       x2="69.754745"
       y2="18.672716" />
    <linearGradient
       inkscape:collect="always"
       xlink:href="#linearGradient3918"
       id="linearGradient3261"
       gradientUnits="userSpaceOnUse"
       gradientTransform="matrix(-0.7721664,0,0,-0.7721657,399.94894,581.56095)"
       x1="32.785671"
       y1="27.651901"
       x2="27.373034"
       y2="22.759722" />
  </defs>
  <sodipodi:namedview
     id="base"
     pagecolor="#ffffff"
     bordercolor="#666666"
     borderopacity="1.0"
     inkscape:pageopacity="0.0"
     inkscape:pageshadow="2"
     inkscape:zoom="1.4"
     inkscape:cx="109.18282"
     inkscape:cy="-57.669397"
     inkscape:document-units="px"
     inkscape:current-layer="layer1"
     showgrid="false"
     inkscape:window-width="1440"
     inkscape:window-height="837"
     inkscape:window-x="-3"
     inkscape:window-y="-4" />
  <metadata
     id="metadata3139">
    <rdf:RDF>
      <cc:Work
         rdf:about="">
        <dc:format>image/svg+xml</dc:format>
        <dc:type
           rdf:resource="http://purl.org/dc/dcmitype/StillImage" />
      </cc:Work>
    </rdf:RDF>
  </metadata>
  <g
     inkscape:label="Ebene 1"
     inkscape:groupmode="layer"
     id="layer1">
    <g
       id="g3217"
       transform="translate(-286,-468.36218)">
      <path
         sodipodi:type="arc"
         style="opacity:1;fill:none;fill-opacity:1;stroke:#ffffff;stroke-width:4.05604982;stroke-linecap:round;stroke-linejoin:round;stroke-miterlimit:4;stroke-dasharray:none;stroke-opacity:1;filter:url(#filter3992)"
         id="path3930"
         sodipodi:cx="64.100471"
         sodipodi:cy="64.100471"
         sodipodi:rx="43.805336"
         sodipodi:ry="43.805336"
         d="M 107.90581,64.100471 A 43.805336,43.805336 0 1 1 20.295135,64.100471 A 43.805336,43.805336 0 1 1 107.90581,64.100471 z"
         transform="matrix(1.2327265,0,0,1.2327265,270.98165,453.34383)" />
      <path
         id="path3882"
         d="M 350,476.36218 C 319.15903,476.36218 294,501.51439 294,532.36218 C 294,563.20997 319.15903,588.36218 350,588.36218 C 380.84098,588.36218 406,563.21229 406,532.36218 C 406,501.51207 380.84098,476.36218 350,476.36218 z M 350,500.14343 C 354.09015,500.14343 357.94168,500.956 361.53125,502.36218 L 320,543.89343 C 318.60088,540.31032 317.78125,536.44335 317.78125,532.36218 C 317.78125,514.49603 332.14026,500.14343 350,500.14343 z M 380.90625,523.89343 C 381.66331,526.60674 382.1875,529.40087 382.1875,532.36218 C 382.18749,550.22833 367.85974,564.58093 350,564.58093 C 347.0374,564.58094 344.2143,564.05804 341.5,563.29968 L 380.90625,523.89343 z"
         style="fill:url(#linearGradient3235);fill-opacity:1;stroke:none;stroke-width:7.08661461;stroke-linecap:square;stroke-linejoin:miter;stroke-miterlimit:4;stroke-dasharray:none;stroke-dashoffset:4.15;stroke-opacity:1" />
      <g
         id="g4252"
         clip-path="url(#clipPath4258)"
         transform="matrix(0.8754888,0,0,0.9174533,1073.7494,270.00924)">
        <path
           style="opacity:1;fill:url(#radialGradient3237);fill-opacity:1;stroke:none;stroke-width:7.08661413;stroke-linecap:square;stroke-linejoin:miter;stroke-miterlimit:4;stroke-dasharray:none;stroke-dashoffset:4.15;stroke-opacity:1;filter:url(#filter4134)"
           id="path4063"
           d="M -825.54942,227.34485 C -833.71236,227.34485 -841.47773,229.07917 -848.51817,232.15735 C -842.55546,235.65656 -833.70711,237.8761 -823.79942,237.8761 C -814.73123,237.8761 -806.54026,236.03053 -800.64317,233.03235 C -808.18413,229.39987 -816.63677,227.34485 -825.54942,227.34485 z" />
        <path
           style="opacity:1;fill:url(#radialGradient3239);fill-opacity:1;stroke:none;stroke-width:7.08661413;stroke-linecap:square;stroke-linejoin:miter;stroke-miterlimit:4;stroke-dasharray:none;stroke-dashoffset:4.15;stroke-opacity:1;filter:url(#filter4202)"
           id="path4069"
           d="M -809.84989,320.21985 C -814.99443,322.69574 -820.75013,324.09485 -826.84989,324.09485 C -830.5269,324.09485 -834.07873,323.58358 -837.44364,322.6261 L -841.59989,328.8761 C -831.48565,331.50156 -820.19823,332.56277 -806.09989,329.8761 L -809.81864,320.21985 L -809.84989,320.21985 z" />
        <path
           style="opacity:0.43599997;fill:url(#radialGradient3241);fill-opacity:1;stroke:none;stroke-width:7.08661413;stroke-linecap:square;stroke-linejoin:miter;stroke-miterlimit:4;stroke-dasharray:none;stroke-dashoffset:4.15;stroke-opacity:1;filter:url(#filter4248)"
           id="path4077"
           d="M -813.3501,336.18981 C -820.95958,338.29588 -828.56905,339.44498 -836.17853,336.8761 L -839.99103,341.1261 C -836.10391,341.95762 -832.06038,342.40735 -827.92853,342.40735 C -821.84043,342.40735 -815.97324,341.44873 -810.45978,339.6886 L -813.3501,336.18981 z" />
        <path
           style="opacity:1;fill:url(#radialGradient3243);fill-opacity:1;stroke:none;stroke-width:7.08661413;stroke-linecap:square;stroke-linejoin:miter;stroke-miterlimit:4;stroke-dasharray:none;stroke-dashoffset:4.15;stroke-opacity:1;filter:url(#filter4176)"
           id="path4083"
           d="M -816.83807,260.0636 L -841.90057,285.1261 L -839.15057,290.3761 L -805.65057,262.3761 L -816.83807,260.0636 z" />
      </g>
      <path
         style="fill:url(#radialGradient3245);fill-opacity:1;stroke:none;stroke-width:0.49999997;stroke-linecap:square;stroke-linejoin:miter;stroke-miterlimit:4;stroke-dasharray:none;stroke-dashoffset:4.15;stroke-opacity:0.44090911"
         id="path3350"
         d="M 349.98841,483.35809 C 323.48602,483.35809 301.97682,504.8673 301.97682,531.36973 C 301.97682,557.87215 323.48602,579.38136 349.98841,579.38136 C 376.49081,579.38136 398,557.87215 398,531.36973 C 398,504.8673 376.49081,483.35809 349.98841,483.35809 z M 349.98841,493.34896 C 358.26715,493.34896 365.94486,495.9972 372.1903,500.4952 L 319.11391,553.57164 C 314.61592,547.3262 311.96767,539.64848 311.96767,531.36973 C 311.96767,510.38226 329.00096,493.34896 349.98841,493.34896 z M 382.38929,511.52677 C 385.93882,517.30734 388.00914,524.09364 388.00914,531.36973 C 388.00914,552.3572 370.97585,569.3905 349.98841,569.3905 C 342.71234,569.3905 335.92604,567.32018 330.14547,563.77064 L 382.38929,511.52677 z" />
      <path
         style="fill:url(#linearGradient3247);fill-opacity:1;stroke:none;stroke-width:7.08661413;stroke-linecap:square;stroke-linejoin:miter;stroke-miterlimit:4;stroke-dasharray:none;stroke-dashoffset:4.15;stroke-opacity:1"
         id="path3977"
         d="M 349.98841,484.09057 C 323.89184,484.09057 302.71201,505.27163 302.71201,531.36973 C 302.71201,531.7363 302.73107,532.09958 302.73937,532.46415 C 305.94121,533.10812 309.23601,533.64209 312.64335,534.10579 C 312.57848,533.20498 312.56126,532.28668 312.56126,531.36973 C 312.56126,510.70245 329.32234,493.94039 349.98841,493.94039 C 358.14038,493.94039 365.69847,496.5427 371.84827,500.97207 L 337.07495,535.74743 C 337.14836,535.74752 337.22037,535.74743 337.29382,535.74743 C 344.90465,535.74743 352.26392,535.3019 359.26312,534.46148 L 381.88903,511.83424 C 384.8927,516.72614 386.82328,522.35514 387.30612,528.38742 C 390.68196,527.26569 393.8344,526.0244 396.77233,524.69374 C 393.52442,501.75477 373.81808,484.09057 349.98841,484.09057 z" />
      <path
         style="fill:url(#linearGradient3249);fill-opacity:1;stroke:none;stroke-width:7.08661413;stroke-linecap:square;stroke-linejoin:miter;stroke-miterlimit:4;stroke-dasharray:none;stroke-dashoffset:4.15;stroke-opacity:1"
         id="path4007"
         d="M 349.74062,483.90438 C 323.64406,483.90438 302.46423,505.08544 302.46423,531.18354 C 302.46423,531.32092 302.46044,531.45726 302.46423,531.59394 C 302.71487,505.71045 323.79975,484.77992 349.74062,484.77992 C 373.28388,484.77992 392.78976,502.02604 396.38774,524.56226 C 396.432,524.54231 396.48041,524.52753 396.52455,524.50754 C 393.27663,501.56857 373.5703,483.90438 349.74062,483.90438 z M 336.82716,535.56124 C 336.90057,535.56131 336.97258,535.56124 337.04603,535.56124 C 337.26659,535.56124 337.48252,535.56198 337.70265,535.56124 L 371.42538,501.39876 L 336.82716,535.56124 z M 312.31347,531.70339 C 312.31235,531.82297 312.31347,531.93923 312.31347,532.05908 C 312.31347,532.68271 312.3427,533.30064 312.3682,533.9196 C 312.37725,533.92083 312.38651,533.91836 312.39555,533.9196 C 312.34301,533.18987 312.31967,532.44606 312.31347,531.70339 z" />
      <path
         style="fill:url(#linearGradient3251);fill-opacity:1;stroke:none;stroke-width:7.08661413;stroke-linecap:square;stroke-linejoin:miter;stroke-miterlimit:4;stroke-dasharray:none;stroke-dashoffset:4.15;stroke-opacity:1"
         id="path4021"
         d="M 373.29759,490.23015 C 384.98536,497.45011 393.28483,509.60976 395.29424,523.80164 C 392.70424,524.97471 390.19662,526.59676 387.26711,527.61024 C 387.31242,528.01128 387.28395,527.884 387.31636,528.28878 C 390.6922,527.16705 393.66954,525.92575 396.60746,524.5951 C 394.5244,509.88308 385.66638,497.33428 373.29759,490.23015 z M 350.17374,493.39851 C 329.50767,493.39851 311.69601,509.81035 311.69601,530.47763 C 311.69601,531.39458 311.10039,532.31289 311.16525,533.21369 C 308.22205,532.81314 305.36239,532.3493 302.57451,531.8183 C 302.58031,532.0004 302.57036,532.18333 302.57451,532.36551 C 305.77635,533.00948 309.07114,533.54344 312.47848,534.00715 C 312.41362,533.10634 312.3964,532.18804 312.3964,531.27109 C 312.3964,510.60381 329.15748,493.84176 349.82354,493.84176 C 356.41182,493.84176 362.60736,495.53022 367.98994,498.52042 C 362.31194,495.05499 357.30671,493.39851 350.17374,493.39851 z M 357.78502,533.56938 C 351.37754,534.33875 344.65861,534.75934 337.73086,534.82797 L 336.91009,535.64879 C 336.9835,535.64887 337.05551,535.64879 337.12896,535.64879 C 344.73978,535.64879 352.09905,535.20325 359.09825,534.36284 L 381.17699,512.28282 L 357.78502,533.56938 z" />
      <path
         transform="matrix(0.8754888,0,0,0.87554,283.41705,276.99651)"
         style="fill:none;fill-opacity:1;stroke:url(#linearGradient3253);stroke-width:1.71327853;stroke-linecap:square;stroke-linejoin:miter;stroke-miterlimit:4;stroke-dasharray:none;stroke-dashoffset:4.15;stroke-opacity:0.44090911;filter:url(#filter4076)"
         id="path4035"
         d="M 76.039077,236.53295 C 46.231077,236.53295 22.039078,260.72495 22.039078,290.53295 C 22.039078,320.34095 46.231077,344.53295 76.039077,344.53295 C 105.84708,344.53295 130.03908,320.34095 130.03908,290.53295 C 130.03908,260.72495 105.84708,236.53295 76.039077,236.53295 z M 76.039077,247.76995 C 85.350418,247.76995 93.985755,250.7485 101.01018,255.80752 L 41.313644,315.50405 C 36.254624,308.47963 33.276072,299.84429 33.276072,290.53295 C 33.276072,266.92777 52.433898,247.76995 76.039077,247.76995 z M 112.48127,268.21503 C 116.47353,274.7166 118.80208,282.34934 118.80208,290.53295 C 118.80208,314.13813 99.644256,333.29596 76.039077,333.29596 C 67.855469,333.29596 60.222726,330.96741 53.721158,326.97515 L 112.48127,268.21503 z" />
      <path
         transform="matrix(0.8754888,0,0,0.87554,283.41705,276.99651)"
         style="fill:none;fill-opacity:1;stroke:url(#linearGradient3255);stroke-width:1.00593925;stroke-linecap:square;stroke-linejoin:miter;stroke-miterlimit:4;stroke-dasharray:none;stroke-dashoffset:4.15;stroke-opacity:0.44090911;filter:url(#filter4055)"
         id="path4049"
         d="M 76.039077,236.53295 C 46.231077,236.53295 22.039078,260.72495 22.039078,290.53295 C 22.039078,320.34095 46.231077,344.53295 76.039077,344.53295 C 105.84708,344.53295 130.03908,320.34095 130.03908,290.53295 C 130.03908,260.72495 105.84708,236.53295 76.039077,236.53295 z M 76.039077,247.76995 C 85.350418,247.76995 93.985755,250.7485 101.01018,255.80752 L 41.313644,315.50405 C 36.254624,308.47963 33.276072,299.84429 33.276072,290.53295 C 33.276072,266.92777 52.433898,247.76995 76.039077,247.76995 z M 112.48127,268.21503 C 116.47353,274.7166 118.80208,282.34934 118.80208,290.53295 C 118.80208,314.13813 99.644256,333.29596 76.039077,333.29596 C 67.855469,333.29596 60.222726,330.96741 53.721158,326.97515 L 112.48127,268.21503 z" />
      <path
         sodipodi:nodetypes="ccsc"
         id="path3907"
         d="M 364.89041,501.32419 L 319.1424,547.62362 C 310.72798,530.58033 317.73114,509.91902 334.77444,501.50461 C 344.59618,496.65555 355.01128,496.59315 364.89041,501.32419 z"
         style="opacity:0.70999995;fill:none;fill-opacity:1;stroke:url(#linearGradient3257);stroke-width:3.99999976;stroke-linecap:round;stroke-linejoin:round;stroke-miterlimit:4;stroke-opacity:1" />
      <path
         transform="matrix(1.2327265,0,0,1.2327265,270.98165,453.34383)"
         d="M 107.90581,64.100471 A 43.805336,43.805336 0 1 1 20.295135,64.100471 A 43.805336,43.805336 0 1 1 107.90581,64.100471 z"
         sodipodi:ry="43.805336"
         sodipodi:rx="43.805336"
         sodipodi:cy="64.100471"
         sodipodi:cx="64.100471"
         id="path3905"
         style="opacity:0.70999995;fill:none;fill-opacity:1;stroke:url(#linearGradient3259);stroke-width:3.24483991;stroke-linecap:round;stroke-linejoin:round;stroke-miterlimit:4;stroke-dasharray:none;stroke-opacity:1"
         sodipodi:type="arc" />
      <path
         style="opacity:0.70999995;fill:none;fill-opacity:1;stroke:url(#linearGradient3261);stroke-width:3.99999976;stroke-linecap:round;stroke-linejoin:round;stroke-miterlimit:4;stroke-opacity:1"
         d="M 335.58025,563.12072 L 381.32826,516.82129 C 389.74267,533.86457 382.73952,554.52589 365.69622,562.94029 C 355.87448,567.78935 345.45938,567.85175 335.58025,563.12072 z"
         id="path3926"
         sodipodi:nodetypes="ccsc" />
    </g>
  </g>
</svg>
