<?xml version="1.0" encoding="UTF-8" standalone="no"?>
<!-- Created with Inkscape (http://www.inkscape.org/) -->
<svg
   xmlns:dc="http://purl.org/dc/elements/1.1/"
   xmlns:cc="http://web.resource.org/cc/"
   xmlns:rdf="http://www.w3.org/1999/02/22-rdf-syntax-ns#"
   xmlns:svg="http://www.w3.org/2000/svg"
   xmlns="http://www.w3.org/2000/svg"
   xmlns:xlink="http://www.w3.org/1999/xlink"
   xmlns:sodipodi="http://sodipodi.sourceforge.net/DTD/sodipodi-0.dtd"
   xmlns:inkscape="http://www.inkscape.org/namespaces/inkscape"
   width="32px"
   height="32px"
   id="svg4147"
   sodipodi:version="0.32"
   inkscape:version="0.45.1"
   sodipodi:docbase="/home/oliver/Studium/SoPra/nut/qnut/res"
   sodipodi:docname="qnut_small.svg"
   inkscape:output_extension="org.inkscape.output.svg.inkscape">
  <defs
     id="defs4149">
    <linearGradient
       id="linearGradient6565">
      <stop
         style="stop-color:#95511f;stop-opacity:0.12608695;"
         offset="0"
         id="stop6567" />
      <stop
         style="stop-color:#764018;stop-opacity:1;"
         offset="1"
         id="stop6569" />
    </linearGradient>
    <linearGradient
       id="linearGradient6523">
      <stop
         style="stop-color:#78431a;stop-opacity:0.76956522;"
         offset="0"
         id="stop6525" />
      <stop
         style="stop-color:#643816;stop-opacity:1;"
         offset="1"
         id="stop6527" />
    </linearGradient>
    <linearGradient
       id="linearGradient6515">
      <stop
         style="stop-color:#714018;stop-opacity:0.43043479;"
         offset="0"
         id="stop6517" />
      <stop
         style="stop-color:#4e2c10;stop-opacity:1;"
         offset="1"
         id="stop6519" />
    </linearGradient>
    <linearGradient
       id="linearGradient6507">
      <stop
         style="stop-color:#663814;stop-opacity:1;"
         offset="0"
         id="stop6509" />
      <stop
         style="stop-color:#120a03;stop-opacity:1;"
         offset="1"
         id="stop6511" />
    </linearGradient>
    <linearGradient
       id="linearGradient6456">
      <stop
         style="stop-color:#ffffff;stop-opacity:1;"
         offset="0"
         id="stop6458" />
      <stop
         style="stop-color:#5c5c5c;stop-opacity:1;"
         offset="1"
         id="stop6460" />
    </linearGradient>
    <filter
       inkscape:collect="always"
       id="filter5941">
      <feGaussianBlur
         inkscape:collect="always"
         stdDeviation="0.52046314"
         id="feGaussianBlur5943" />
    </filter>
    <pattern
       patternUnits="userSpaceOnUse"
       width="2.1583203"
       height="2.2387099"
       patternTransform="translate(-33.347238,17.746084)"
       id="pattern6148">
      <g
         style="stroke:#c1c1c1;stroke-opacity:1"
         transform="matrix(0.1840557,0,0,0.2299601,7.7272598,-3.7126667)"
         id="g6127">
        <path
           style="fill:none;fill-rule:evenodd;stroke:#c1c1c1;stroke-width:1px;stroke-linecap:butt;stroke-linejoin:miter;stroke-opacity:1"
           d="M -37.888156,18.360264 C -37.729482,18.439601 -34.923726,17.639578 -34.351928,17.476207 C -34.14931,17.418316 -33.718123,17.476207 -33.467871,17.476207"
           id="path6089" />
        <path
           style="fill:none;fill-rule:evenodd;stroke:#c1c1c1;stroke-width:1px;stroke-linecap:butt;stroke-linejoin:miter;stroke-opacity:1"
           d="M -37.761862,20.380966 C -37.047812,20.176951 -35.356063,19.142043 -33.973047,18.865439"
           id="path6091" />
        <path
           style="fill:none;fill-rule:evenodd;stroke:#c1c1c1;stroke-width:1px;stroke-linecap:butt;stroke-linejoin:miter;stroke-opacity:1"
           d="M -36.120042,21.770198 C -35.475876,21.58615 -34.561489,20.506702 -33.720459,20.002084"
           id="path6093" />
        <path
           style="fill:none;fill-rule:evenodd;stroke:#c1c1c1;stroke-width:1px;stroke-linecap:butt;stroke-linejoin:miter;stroke-opacity:1"
           d="M -33.467871,22.906843 C -33.277282,22.852389 -32.336452,22.202732 -31.826051,21.896492"
           id="path6095" />
        <path
           style="fill:none;fill-rule:evenodd;stroke:#c1c1c1;stroke-width:1px;stroke-linecap:butt;stroke-linejoin:miter;stroke-opacity:1"
           d="M -32.836402,24.927544 C -32.43162,24.811892 -33.69093,24.825442 -34.09934,24.927544"
           id="path6097" />
        <path
           style="fill:none;fill-rule:evenodd;stroke:#c1c1c1;stroke-width:1px;stroke-linecap:butt;stroke-linejoin:miter;stroke-opacity:1"
           d="M -35.614867,25.43272 C -35.102854,25.28643 -35.347833,24.393477 -35.109691,23.917193"
           id="path6099" />
        <path
           style="fill:none;fill-rule:evenodd;stroke:#c1c1c1;stroke-width:1px;stroke-linecap:butt;stroke-linejoin:miter;stroke-opacity:1"
           d="M -33.341577,22.906843 C -33.256167,22.88244 -32.629843,22.294648 -32.331226,21.896492"
           id="path6101" />
        <path
           style="fill:none;fill-rule:evenodd;stroke:#c1c1c1;stroke-width:1px;stroke-linecap:butt;stroke-linejoin:miter;stroke-opacity:1"
           d="M -31.573463,20.380966 C -30.594427,20.101241 -33.586302,20.002084 -34.604516,20.002084"
           id="path6103" />
        <path
           style="fill:none;fill-rule:evenodd;stroke:#c1c1c1;stroke-width:1px;stroke-linecap:butt;stroke-linejoin:miter;stroke-opacity:1"
           d="M -36.751511,20.886141 C -36.751511,20.886141 -36.751511,20.886141 -36.751511,20.886141 z "
           id="path6105" />
        <path
           style="fill:none;fill-rule:evenodd;stroke:#c1c1c1;stroke-width:1px;stroke-linecap:butt;stroke-linejoin:miter;stroke-opacity:1"
           d="M -36.498924,18.486558 C -36.137275,18.383229 -35.993748,19.999255 -35.993748,20.507259"
           id="path6107" />
        <path
           style="fill:none;fill-rule:evenodd;stroke:#c1c1c1;stroke-width:1px;stroke-linecap:butt;stroke-linejoin:miter;stroke-opacity:1"
           d="M -36.120042,22.275373 C -35.684079,22.150812 -36.456826,21.433414 -36.625217,21.012435"
           id="path6109" />
        <path
           style="fill:none;fill-rule:evenodd;stroke:#c1c1c1;stroke-width:1px;stroke-linecap:butt;stroke-linejoin:miter;stroke-opacity:1"
           d="M -38.267038,18.739145 C -37.493703,18.518193 -39.862341,18.486558 -40.666621,18.486558 C -41.028329,18.486558 -41.259319,18.146447 -41.424384,17.981382"
           id="path6111" />
        <path
           style="fill:none;fill-rule:evenodd;stroke:#c1c1c1;stroke-width:1px;stroke-linecap:butt;stroke-linejoin:miter;stroke-opacity:1"
           d="M -38.393331,16.844738 C -38.498933,16.844738 -37.346173,16.993403 -35.74116,16.59215"
           id="path6113" />
        <path
           style="fill:none;fill-rule:evenodd;stroke:#c1c1c1;stroke-width:1px;stroke-linecap:butt;stroke-linejoin:miter;stroke-opacity:1"
           d="M -31.068288,16.971031 C -31.538957,16.971031 -30.8157,17.889594 -30.8157,18.360264"
           id="path6115" />
        <path
           style="fill:none;fill-rule:evenodd;stroke:#c1c1c1;stroke-width:1px;stroke-linecap:butt;stroke-linejoin:miter;stroke-opacity:1"
           d="M -32.204933,21.391316 C -32.74839,21.391316 -33.670002,21.871264 -34.225634,22.149079"
           id="path6117" />
        <path
           style="fill:none;fill-rule:evenodd;stroke:#c1c1c1;stroke-width:1px;stroke-linecap:butt;stroke-linejoin:miter;stroke-opacity:1"
           d="M -37.382981,23.412018 C -37.534995,23.412018 -37.306524,23.564931 -37.635568,22.906843"
           id="path6119" />
        <path
           style="fill:none;fill-rule:evenodd;stroke:#c1c1c1;stroke-width:1px;stroke-linecap:butt;stroke-linejoin:miter;stroke-opacity:1"
           d="M -32.710108,19.370615 C -32.920598,19.539006 -33.611136,19.87579 -33.341577,19.87579 C -35.613965,19.87579 -37.182585,22.959034 -38.519625,24.296075 C -39.113036,24.296075 -38.867193,21.928846 -38.772213,21.643904"
           id="path6121" />
        <path
           style="fill:none;fill-rule:evenodd;stroke:#c1c1c1;stroke-width:1px;stroke-linecap:butt;stroke-linejoin:miter;stroke-opacity:1"
           d="M -37.761862,20.380966 C -38.53811,20.380966 -36.224986,20.121261 -35.488573,19.87579"
           id="path6123" />
        <path
           style="fill:none;fill-rule:evenodd;stroke:#c1c1c1;stroke-width:1px;stroke-linecap:butt;stroke-linejoin:miter;stroke-opacity:1"
           d="M -31.826051,17.728795 C -31.826051,17.728795 -31.826051,17.728795 -31.826051,17.728795 z "
           id="path6125" />
      </g>
    </pattern>
    <linearGradient
       inkscape:collect="always"
       xlink:href="#linearGradient6507"
       id="linearGradient6513"
       x1="10.525882"
       y1="12.225696"
       x2="25.051224"
       y2="27.002077"
       gradientUnits="userSpaceOnUse"
       gradientTransform="matrix(1.0240413,0,0,1.0517172,-0.2090006,-0.8336361)" />
    <linearGradient
       inkscape:collect="always"
       xlink:href="#linearGradient6515"
       id="linearGradient6521"
       x1="9.0848427"
       y1="10.482799"
       x2="26.40785"
       y2="26.071268"
       gradientUnits="userSpaceOnUse"
       gradientTransform="matrix(1.0240413,0,0,1.0517172,-0.2090006,-0.8336361)" />
    <linearGradient
       inkscape:collect="always"
       xlink:href="#linearGradient6523"
       id="linearGradient6529"
       x1="11.143643"
       y1="12.061309"
       x2="24.24202"
       y2="26.007402"
       gradientUnits="userSpaceOnUse"
       gradientTransform="matrix(1.0240413,0,0,1.0517172,-0.2090006,-0.8336361)" />
    <linearGradient
       inkscape:collect="always"
       xlink:href="#linearGradient6456"
       id="linearGradient6563"
       gradientUnits="userSpaceOnUse"
       x1="17.567122"
       y1="14.787654"
       x2="25.276077"
       y2="28.092028" />
    <linearGradient
       inkscape:collect="always"
       xlink:href="#linearGradient6565"
       id="linearGradient6571"
       x1="12.948854"
       y1="13.008759"
       x2="24.592348"
       y2="26.080172"
       gradientUnits="userSpaceOnUse"
       spreadMethod="pad"
       gradientTransform="matrix(1.0240413,0,0,1.0517172,-0.2090006,-0.8336361)" />
  </defs>
  <sodipodi:namedview
     id="base"
     pagecolor="#ffffff"
     bordercolor="#666666"
     borderopacity="1.0"
     inkscape:pageopacity="0.0"
     inkscape:pageshadow="2"
     inkscape:zoom="5.598901"
     inkscape:cx="40.909058"
     inkscape:cy="-2.4332655"
     inkscape:current-layer="layer1"
     showgrid="false"
     inkscape:grid-bbox="true"
     inkscape:document-units="px"
     inkscape:window-width="1272"
     inkscape:window-height="717"
     inkscape:window-x="0"
     inkscape:window-y="24" />
  <metadata
     id="metadata4152">
    <rdf:RDF>
      <cc:Work
         rdf:about="">
        <dc:format>image/svg+xml</dc:format>
        <dc:type
           rdf:resource="http://purl.org/dc/dcmitype/StillImage" />
      </cc:Work>
    </rdf:RDF>
  </metadata>
  <g
     id="layer1"
     inkscape:label="Layer 1"
     inkscape:groupmode="layer">
    <path
       sodipodi:nodetypes="cssszzzszzzzzzzzzzzzzzsssssszzzzzzzcczzzzzzsssssssssssss"
       id="path5603"
       d="M 0.4375401,17.832309 C 0.3625958,17.125095 0.1296005,16.726843 0.022646,16.194897 C -0.0727126,15.720626 0.202176,15.00292 0.243982,14.371823 C 0.2707225,13.968164 0.4735887,12.416921 0.7008628,12.081538 C 1.0467251,11.571158 1.7436304,10.287122 2.0598594,9.8836249 C 2.3900429,9.4623219 2.8301567,8.2530719 3.1440731,7.7913049 C 3.4414702,7.3538382 3.533889,6.7106824 3.7764571,6.1963268 C 3.8954486,5.9440105 4.0203408,5.4698004 4.1537386,5.184821 C 4.287137,4.899841 4.4290402,4.8040924 4.716402,4.7293472 C 5.2911248,4.5798574 5.4414664,4.5499861 5.9591893,4.436741 C 6.4769129,4.3234952 6.5172128,4.1393849 7.1648331,3.9181194 C 7.8047937,3.6994712 8.0536702,3.4596557 8.5460542,3.3473134 C 9.0588655,3.2303107 9.6640695,2.9438523 10.054721,2.835105 C 10.436151,2.7289254 10.982065,2.6270916 11.713334,2.3984178 C 12.456884,2.1659037 12.738329,2.2964173 13.212259,2.2863608 C 13.686187,2.2763036 14.244953,2.1608051 14.791053,2.1803222 C 15.333517,2.1997094 16.012148,2.1909388 16.445138,2.3496246 C 16.866308,2.5039786 17.431039,2.5149132 17.922888,2.7480578 C 18.427159,2.9870895 19.239443,3.5856204 19.700071,3.8985523 C 20.14156,4.1984812 20.62146,4.4861729 21.15007,4.988382 C 21.634951,5.4490479 22.282038,5.8434776 22.719276,6.3152726 C 23.180027,6.8124372 23.566809,7.1493432 23.827294,7.5654416 C 24.105105,8.009216 24.35453,8.4034785 24.595734,8.836597 C 24.861691,9.3141649 25.052817,9.9208929 25.197415,10.87056 C 25.342014,11.820226 25.610681,12.653266 25.673013,13.018243 C 25.868317,14.161845 25.860086,15.158424 25.925223,16.391857 C 25.972423,17.285608 26.07219,18.185362 25.973454,18.937285 C 25.9288,19.277362 25.921591,19.571588 25.926367,19.960958 C 25.931142,20.350327 25.850044,20.877427 25.848189,21.268215 C 25.84633,21.658998 25.714133,22.002314 25.682158,22.27807 C 25.65018,22.553824 25.586333,22.625905 25.54548,22.901443 C 25.50463,23.176985 25.391456,23.430172 25.329785,23.907945 C 25.268116,24.385718 24.995437,25.213575 24.91493,25.710463 C 24.83442,26.207348 24.721927,26.487951 24.683665,26.851969 C 24.645402,27.215987 24.60656,27.602879 24.581743,27.872274 C 24.556922,28.141667 24.61634,28.27156 24.570503,28.469041 L 24.28356,28.694988 C 24.112333,28.571107 24.040332,28.39249 23.76415,28.329782 C 23.487973,28.267084 23.226904,28.181015 22.745893,28.157412 C 22.264879,28.133805 21.38898,28.157479 20.88933,28.163436 C 20.389685,28.169396 20.138842,28.223799 19.748958,28.157832 C 19.359072,28.091866 18.894375,28.151741 18.538082,28.137536 C 18.181789,28.123333 18.098865,28.158212 17.611697,28.123046 C 17.124527,28.087876 16.02032,28.073302 15.479411,28.10982 C 14.938502,28.146338 14.544716,28.01473 14.246619,27.982532 C 13.575197,27.910392 13.659901,27.929055 13.160942,27.857672 C 12.591749,27.776242 12.533108,27.70064 12.145816,27.634473 C 11.623545,27.545245 11.193374,27.473719 10.702927,27.373391 C 10.352828,27.301774 10.042127,27.28706 9.3993465,27.093312 C 9.0165945,26.977942 8.7103304,26.923629 8.0837722,26.683509 C 7.3924111,26.418555 7.094653,26.425704 6.2795994,25.983017 C 5.8239056,25.73551 5.0604677,25.248734 4.7016078,24.772981 C 4.3545229,24.312838 3.9197454,23.741275 3.3704438,23.129004 C 2.8496923,22.548556 2.5161435,21.927022 2.0023972,21.162439 C 1.8749493,20.972764 1.4688172,20.3559 1.2640179,19.931341 C 0.9009348,19.178653 0.5549482,18.94022 0.4375401,17.832309 z "
       style="opacity:0.42539685;fill:#000000;fill-opacity:1;fill-rule:nonzero;stroke:none;filter:url(#filter5941)"
       transform="matrix(1.0198318,0,0,1.0057448,1.0843116,-0.2022016)" />
    <path
       sodipodi:nodetypes="cccccccccccccccsszzssssszzzzssssccccccccccccccc"
       id="path5605"
       d="M 18.878124,12.591856 C 19.207898,12.566044 19.539063,12.593893 19.869479,12.579377 C 20.541637,12.485652 21.223632,12.517107 21.899687,12.532839 C 22.726671,12.706068 23.552684,12.903244 24.35175,13.190814 C 24.952715,13.413969 25.538434,13.812038 26.201178,13.729885 C 26.956293,13.590175 27.695877,13.307333 28.471683,13.323285 C 28.719314,13.326921 28.977392,13.31008 29.211518,13.412818 C 29.513521,13.547824 29.834703,13.647547 30.106555,13.84725 C 30.338761,14.019151 30.480203,14.291368 30.579781,14.564711 C 30.786914,15.192745 30.709702,15.865937 30.725006,16.517476 C 30.738919,16.853672 30.584606,17.158147 30.449807,17.451551 C 30.285881,17.808605 30.006265,18.080688 29.777152,18.388855 C 29.483594,18.792576 29.078863,19.092678 28.828474,19.533016 C 28.443378,19.928946 28.318434,20.498109 28.179291,21.025579 C 28.04485,21.695699 27.866085,22.355266 27.667199,23.006798 C 27.37325,23.739739 27.103365,24.486829 26.737732,25.184766 C 26.506706,25.625762 26.324517,25.726594 26.083393,26.182795 C 25.840489,26.642361 25.614825,27.085155 25.294655,27.454426 C 24.945096,27.857596 24.743302,28.081673 24.200196,28.624873 C 23.657076,29.168087 23.379257,29.450358 22.974274,29.8061 C 22.603029,30.132204 22.285153,30.36587 21.738934,30.703543 C 21.349933,30.944026 20.893143,30.988306 20.135535,31.019399 C 19.349186,31.05167 19.063139,31.141647 18.448569,30.96126 C 18.174952,30.880946 17.977897,30.753797 17.550811,30.503534 C 17.155058,30.271633 16.99069,30.170621 16.61028,29.816815 C 16.245218,29.477284 16.260324,29.599118 15.853866,29.167336 C 15.433409,28.720683 15.429268,28.712867 14.979245,28.114988 C 14.540145,27.531619 14.494363,27.527193 14.251299,27.210473 C 13.994418,26.875748 13.94246,26.572049 13.739796,26.311582 C 13.432677,25.916865 13.444927,25.812395 13.273418,25.540349 C 13.004906,25.114441 12.818869,24.825474 12.653289,24.34471 C 12.461227,23.787059 12.20919,23.249747 12.086477,22.667994 C 11.990434,22.212674 11.806706,21.777645 11.787035,21.306335 C 11.773464,20.848134 11.665549,20.402091 11.607301,19.949606 C 11.583825,19.728127 11.606772,19.487771 11.486492,19.291823 C 11.145274,18.727671 10.719594,18.226508 10.272736,17.753546 C 10.06206,17.523223 9.8693451,17.26323 9.7701931,16.957296 C 9.6423177,16.570874 9.4871663,16.178533 9.5017514,15.761493 C 9.5163863,15.38351 9.4563994,14.993375 9.574225,14.627702 C 9.6744872,14.230551 9.8473911,13.845605 10.135868,13.561261 C 10.571201,13.066788 11.249357,12.941739 11.862228,12.949525 C 12.279027,12.909137 12.699079,12.861959 13.11797,12.903569 C 13.665032,13.013698 14.207592,13.176667 14.701213,13.453998 C 14.883787,13.546141 15.059282,13.669298 15.26047,13.710535 C 15.760767,13.502292 16.235461,13.210706 16.768607,13.097254 C 17.234823,13.003238 17.660299,12.743765 18.137829,12.704101 C 18.386158,12.679855 18.630736,12.625156 18.878124,12.591856 z "
       style="opacity:0.42539685;fill:#000000;fill-opacity:1;fill-rule:nonzero;stroke:none;filter:url(#filter5941)"
       transform="matrix(1.0198318,0,0,1.0057448,0.1790008,-0.600678)" />
    <path
       style="fill:#000000;fill-rule:nonzero;stroke:none"
       d="M 1.6507069,17.118175 C 1.5758537,16.416652 1.3431414,16.021604 1.2363169,15.493939 C 1.1410741,15.023485 1.4156288,14.311554 1.457384,13.685535 C 1.484092,13.285125 1.6867116,11.746365 1.9137096,11.41368 C 2.2591517,10.907408 2.9552104,9.6337035 3.2710551,9.2334536 C 3.6008375,8.8155408 4.0404166,7.6160216 4.3539516,7.1579704 C 4.6509873,6.724024 4.7432938,6.0860437 4.9855672,5.5758271 C 5.1044141,5.3255412 5.2291545,4.855147 5.3623903,4.5724608 C 5.4956266,4.289774 5.6373574,4.1947959 5.9243701,4.1206521 C 6.4983946,3.9723653 6.6485535,3.9427344 7.1656474,3.8304006 C 7.682742,3.718066 7.7229929,3.5354373 8.3698263,3.3159523 C 9.0090094,3.0990635 9.2575835,2.8611778 9.7493693,2.7497395 C 10.261557,2.6336783 10.866026,2.3495251 11.256203,2.2416529 C 11.63717,2.1363277 12.182421,2.0353133 12.912801,1.8084797 C 13.655448,1.5778366 13.936551,1.7073 14.409905,1.6973244 C 14.883257,1.6873481 15.441344,1.5727791 15.98678,1.5921391 C 16.528585,1.6113703 17.206392,1.6026702 17.638855,1.7600791 C 18.059514,1.913191 18.623559,1.9240376 19.114811,2.1553062 C 19.618468,2.3924144 20.429765,2.9861288 20.889834,3.2965426 C 21.330786,3.594058 21.810103,3.8794347 22.338071,4.3776025 C 22.822363,4.8345615 23.468664,5.2258172 23.905371,5.6938157 C 24.365562,6.1869796 24.751874,6.5211745 25.012043,6.9339246 C 25.289516,7.374128 25.538638,7.7652179 25.77955,8.1948511 C 26.045182,8.6685761 26.236077,9.2704218 26.380499,10.212446 C 26.524923,11.15447 26.793263,11.980808 26.855519,12.342848 C 27.050585,13.477247 27.042364,14.465806 27.107423,15.689314 C 27.154566,16.575873 27.25421,17.468388 27.155595,18.214259 C 27.110996,18.551599 27.103796,18.843458 27.108566,19.229695 C 27.113335,19.615931 27.032335,20.138788 27.030482,20.526433 C 27.028626,20.914071 26.896589,21.254624 26.864653,21.528161 C 26.832713,21.801696 26.768945,21.873196 26.728141,22.146518 C 26.687341,22.419843 26.574303,22.670993 26.512708,23.144921 C 26.451114,23.618849 26.178766,24.440044 26.098357,24.932935 C 26.017946,25.42582 25.905588,25.704166 25.867373,26.065255 C 25.829157,26.426344 25.790362,26.810121 25.765576,27.077349 C 25.740784,27.344575 25.800129,27.473422 25.754349,27.669314 L 25.467754,27.893442 C 25.296735,27.770559 25.224822,27.593379 24.948975,27.531176 C 24.673134,27.468982 24.412382,27.383605 23.931956,27.360193 C 23.451525,27.336775 22.576692,27.360258 22.077648,27.366169 C 21.578611,27.37208 21.328072,27.426045 20.938661,27.360609 C 20.549249,27.295174 20.085118,27.354567 19.729256,27.340476 C 19.373397,27.326387 19.290574,27.360985 18.803998,27.326104 C 18.317419,27.291216 17.214555,27.276758 16.674302,27.312983 C 16.134051,27.349208 15.740743,27.218659 15.443008,27.186721 C 14.772402,27.11516 14.857003,27.133672 14.35865,27.062864 C 13.790148,26.982089 13.731579,26.907096 13.344758,26.841462 C 12.823122,26.752951 12.393472,26.682001 11.903622,26.58248 C 11.553948,26.51144 11.243625,26.496844 10.601625,26.304656 C 10.219338,26.190214 9.9134462,26.136337 9.287649,25.89815 C 8.5971278,25.635328 8.2997315,25.64242 7.4856682,25.203295 C 7.030528,24.957779 6.2680178,24.47492 5.9095938,24.002996 C 5.5629306,23.546556 5.1286813,22.979592 4.5800471,22.372248 C 4.0599284,21.796471 3.7267848,21.179939 3.2136627,20.421507 C 3.0863697,20.23336 2.680731,19.621459 2.4761805,19.200317 C 2.1135387,18.453686 1.7679723,18.217171 1.6507069,17.118175 z "
       id="path4185"
       sodipodi:nodetypes="cssszzzszzzzzzzzzzzzzzsssssszzzzzzzcczzzzzzsssssssssssss" />
    <path
       style="fill:#cca145;fill-rule:nonzero;stroke:none"
       d="M 8.9932542,3.8860517 C 8.9413995,3.9390183 8.6596082,4.191168 8.6098633,4.2452741 C 8.0265127,4.8699709 7.0961165,5.308875 6.2507662,6.293345 C 6.1925971,6.3114276 4.6871745,8.0362549 4.6376983,8.0902084 C 4.4023931,8.3804763 4.25821,8.678681 4.0794608,9.0443765 C 3.9309485,9.2614327 3.8292216,9.5046791 3.7072471,9.7362888 C 3.5827472,9.9808684 3.4247978,10.20636 3.286079,10.442816 C 2.9713423,10.976431 2.6889613,11.529957 2.4614876,12.105525 C 2.3549927,12.452843 2.2819945,12.810225 2.2412038,13.170975 C 2.2023422,13.436515 2.1326208,13.698556 2.12038,13.9677 C 2.0746274,14.660069 1.9298587,15.374376 2.1404375,16.053981 C 2.1943861,16.297792 2.2060683,16.553838 2.3200782,16.781422 C 2.4933578,16.667257 2.6770696,16.564533 2.8762618,16.501112 C 3.1083082,16.412439 3.3654731,16.462017 3.5992864,16.37753 C 4.0642152,16.221394 4.5257047,16.046521 4.9572094,15.812663 C 5.2881804,15.639877 5.6440558,15.523713 5.9998579,15.412295 C 6.1328571,15.372976 6.2473756,15.295142 6.3643369,15.223517 C 6.9074782,14.923477 7.5189417,14.755059 8.0528959,14.439529 C 8.0990528,14.487201 8.1380397,14.528006 8.1636529,14.558059 C 8.3704342,14.48742 8.7404167,14.141569 8.9388822,14.052791 C 9.48814,13.843316 10.025418,13.603081 10.558332,13.355989 C 10.846924,13.170037 11.142657,12.994117 11.435809,12.814946 C 11.841432,12.52369 12.233494,12.212834 12.621344,11.898852 C 12.937015,11.594307 13.196483,11.238424 13.51081,10.931825 C 13.732511,10.721996 13.891914,10.459035 14.103919,10.240748 C 14.416069,9.934487 14.612649,9.5377338 14.908276,9.2171926 C 15.418276,8.5631358 15.922638,7.9053911 16.435004,7.2531348 C 16.74783,6.9048029 17.055425,6.550336 17.34227,6.1806615 C 17.477237,5.9545728 17.607884,5.7262701 17.792809,5.5348027 C 18.00022,5.1717276 18.36638,4.9437344 18.632479,4.627233 C 18.849386,4.390482 18.99903,4.1042678 19.201993,3.8567695 C 19.327349,3.7027649 19.398612,3.5166788 19.482318,3.3392912 C 19.289652,3.11503 18.976271,3.0760054 18.717959,2.9602393 C 18.394458,2.8166808 18.061694,2.6967455 17.727223,2.5814805 C 17.455957,2.4913769 17.167559,2.4827464 16.88927,2.4256773 C 16.506185,2.3461042 16.109373,2.3209504 15.719843,2.3602472 C 15.364355,2.3976249 15.004882,2.3371846 14.651653,2.4034361 C 14.425203,2.428405 14.211228,2.5110362 13.986604,2.5416432 C 13.569024,2.5603958 13.146328,2.5441476 12.73593,2.6360152 C 12.257331,2.7459271 11.788197,2.8974278 11.302837,2.9771972 C 11.007227,3.0362158 10.740489,3.184562 10.45027,3.2620534 C 9.9333188,3.4164421 9.4604514,3.6137423 8.9932542,3.8860517 z "
       id="path2684"
       sodipodi:nodetypes="cccccccccccccccccccccccccccccccccccccccccc" />
    <path
       style="fill:#9c7828;stroke:none;stroke-width:0.1;stroke-linecap:butt;stroke-linejoin:miter;stroke-miterlimit:10"
       d="M 5.9113711,4.9710819 C 5.9852591,4.8080946 6.1456367,4.7098018 6.2909237,4.6150585 C 6.4145451,4.4971182 6.5827638,4.5403609 6.6757616,4.5597752 C 6.8466151,4.5227885 6.9964917,4.4788303 7.1045004,4.4737192 C 7.1939994,4.4152035 7.2600046,4.3736013 7.3099368,4.3555758 C 7.4868149,4.3224307 7.6676331,4.3897561 7.8343817,4.2969131 C 8.1313982,4.1564958 8.4758288,4.1325878 8.7502025,3.9423045 C 8.8611648,3.8908163 8.9844267,3.7564154 9.116822,3.8188562 C 9.0649673,3.8718227 9.0044898,3.9208784 8.9547448,3.9749845 C 9.2044689,3.9020292 9.4530114,3.8186244 9.7131599,3.7887719 C 10.124885,3.7422471 10.514782,3.5948196 10.920838,3.5185901 C 11.413921,3.3825746 11.918405,3.2955243 12.420088,3.196892 C 13.293004,2.9856883 14.201313,3.063546 15.087111,2.9484601 C 15.442109,2.8944506 15.800361,2.9520147 16.157178,2.9488626 C 16.723199,2.9928329 17.28196,3.1001498 17.841943,3.1905455 C 18.104695,3.2365333 18.348509,3.3488696 18.596793,3.4414773 C 18.718492,3.4939815 18.87127,3.5473551 18.909452,3.6894067 C 18.971629,3.8644934 18.816426,4.0712794 18.628192,4.0592106 C 18.249478,4.0661082 17.871872,4.0104258 17.493141,4.0271455 C 17.104465,4.0553359 16.709577,3.9836318 16.327744,4.0867044 C 16.108268,4.0938926 15.890024,4.0579206 15.670773,4.0664068 C 15.304184,4.0789502 14.941407,4.1391852 14.582885,4.2120106 C 14.018096,4.3239666 13.444127,4.407994 12.898836,4.5974857 C 12.607854,4.6976365 12.305694,4.7628088 12.019188,4.8755821 C 12.040816,4.8974023 12.084074,4.9410441 12.105702,4.9628643 C 11.934403,5.0017724 11.765349,5.0488508 11.597012,5.097493 C 11.861874,5.1798541 12.130003,5.2551874 12.381345,5.3744554 C 12.134028,5.3305084 11.891808,5.265445 11.651747,5.1935132 C 11.454821,5.1338833 11.241246,5.1155797 11.044295,5.184948 C 10.760416,5.2797597 10.463435,5.3284115 10.181624,5.4289238 C 10.337618,5.5181339 10.503475,5.5884531 10.671307,5.6533524 C 10.907019,5.7448935 11.118896,5.8840565 11.343547,5.9981443 C 11.567253,6.1139241 11.801826,6.2100258 12.016228,6.3433248 C 12.18715,6.4492423 12.338135,6.5850026 12.516328,6.6802943 C 12.567218,6.7074282 12.618945,6.7339138 12.671511,6.7597508 C 13.185522,7.0742657 13.740176,7.3172919 14.25374,7.6330634 C 14.48865,7.7814951 14.781355,7.8590246 14.958173,8.0839752 C 15.081202,8.2299826 15.003876,8.4776494 14.823055,8.5344525 C 14.696459,8.5644785 14.565938,8.5306296 14.444256,8.4966532 C 14.301927,8.4142009 14.155849,8.3337309 13.992978,8.3002359 C 13.5711,8.208997 13.172666,8.038664 12.752787,7.9401008 C 12.285372,7.7928546 11.806927,7.6768304 11.353736,7.4887194 C 11.192166,7.3792005 11.02327,7.2810819 10.851682,7.1884042 C 10.612302,7.0615086 10.371478,6.9374441 10.139311,6.7981241 C 9.9369038,6.6840951 9.7107302,6.6226665 9.5023959,6.5218491 C 9.143466,6.3325141 8.7917264,6.128611 8.4231553,5.957953 C 8.1629137,5.8395674 7.8692962,5.8882244 7.6003602,5.9449849 C 7.6309193,6.1711566 7.7498444,6.368502 7.8820665,6.5507302 C 8.0867807,6.8319639 8.2174951,7.1741022 8.5029085,7.3907474 C 8.8518257,7.6623825 9.1753701,7.9635388 9.5023441,8.2603166 C 9.856093,8.5942737 10.26508,8.864841 10.610223,9.2085904 C 10.949223,9.5390881 11.365339,9.802386 11.621671,10.20751 C 11.282358,10.064864 10.958097,9.8899745 10.615502,9.7550614 C 10.45092,9.6232874 10.295831,9.4803068 10.152043,9.3269204 C 9.9119746,9.0700235 9.6306637,8.8523452 9.4142766,8.5739361 C 9.2970611,8.422982 9.1577032,8.2890351 8.9902709,8.194055 C 9.67347,9.1150958 10.415379,9.9929699 11.123943,10.89533 C 11.342413,11.182848 11.650416,11.442574 11.681687,11.824815 C 11.570629,11.91732 11.469914,12.077937 11.303437,12.048992 C 11.111784,12.015535 10.958011,11.886258 10.794372,11.791798 C 10.531184,11.63304 10.264209,11.478937 10.020632,11.291354 C 9.754311,11.031595 9.5124174,10.748722 9.2976633,10.446028 C 9.0702672,10.049304 8.7168553,9.7465757 8.4705537,9.3633896 C 8.2802824,9.0690434 8.0503452,8.8037505 7.8202104,8.5400076 C 7.6559658,8.29718 7.5212401,8.03713 7.3712005,7.7860906 C 7.2110924,7.5209771 7.0663944,7.2466974 6.8921302,6.9902443 C 6.7439694,7.253396 6.6914565,7.5538351 6.598267,7.8375964 C 6.5105619,8.0555509 6.667915,8.2610605 6.6699003,8.478672 C 6.6877145,8.9763176 6.7089966,9.4741016 6.744267,9.9709229 C 6.813672,10.670185 7.0462692,11.339257 7.1728508,12.028373 C 7.2382655,12.392117 7.3914357,12.731548 7.4840176,13.088221 C 7.5398853,13.301236 7.6401202,13.513131 7.6036542,13.738522 C 7.2110211,13.385719 7.1184462,12.841936 6.9583372,12.365671 C 6.8591588,12.052786 6.7477157,11.741391 6.7101133,11.413688 C 6.6652699,11.191481 6.6905716,10.941351 6.546717,10.75066 C 6.4233768,10.581739 6.3740399,10.376153 6.2966895,10.18568 C 6.0969535,10.676151 6.1292121,11.213629 6.1256618,11.731361 C 6.1299405,12.024436 6.0895283,12.317057 6.1141672,12.610054 C 6.1400476,12.892436 6.0804777,13.172848 6.0884156,13.455144 C 6.0940107,13.717877 6.1177938,13.97999 6.1203547,14.242867 C 6.11303,14.422154 6.0892716,14.647181 5.8962168,14.725802 C 5.712404,14.815441 5.5556707,14.628658 5.4036042,14.554321 C 5.3097941,14.458747 5.1987177,14.364275 5.1654442,14.22978 C 5.1320392,14.100948 5.1269835,13.967488 5.1105333,13.836188 C 5.0775217,13.538037 4.9738558,13.254052 4.9169662,12.96056 C 4.6973724,12.567427 4.3075102,11.792626 4.2366259,11.546865 C 4.0404305,10.866631 4.078851,10.52153 4.4812772,9.0812038 C 4.4820192,8.7844986 4.609198,8.5026155 4.5830866,8.2044386 C 4.3493483,8.4814298 4.2391037,8.8685925 4.0077763,9.1609301 C 4.0911229,8.8139299 4.300524,8.5018714 4.4686367,8.1897602 C 4.6870292,7.9006269 4.8465712,7.5763777 5.0344822,7.2682776 C 5.2489661,6.8724224 5.353233,6.431448 5.5300774,6.0196068 C 5.6339399,5.6624356 5.7555337,5.3097438 5.9113711,4.9710819 z "
       id="path2662"
       sodipodi:nodetypes="cccccccccccccccccccccccccccccccccscccccccccccccccccccccccccccccccccccccccccccccccccccsccccccc" />
    <path
       style="fill:#b8913d;stroke:none;stroke-width:0.1;stroke-linecap:butt;stroke-linejoin:miter;stroke-miterlimit:10"
       d="M 6.0868766,4.8214792 C 6.2415377,4.7146171 6.4011312,4.614306 6.5671049,4.5242506 C 6.7388402,4.4469428 6.9441353,4.4128083 7.1299563,4.4598359 C 6.8360941,4.6732661 6.4684336,4.8780539 6.0868766,4.8214792 z "
       id="path2666"
       sodipodi:nodetypes="cccc" />
    <path
       style="fill:#c28a28;stroke:none;stroke-width:0.1;stroke-linecap:butt;stroke-linejoin:miter;stroke-miterlimit:10"
       d="M 5.4253593,7.1027496 C 5.537812,6.8304663 5.6344225,6.5502142 5.7837436,6.2944793 C 5.8175862,6.4231764 5.8574734,6.5577834 5.8248763,6.6911872 C 5.6424572,7.45113 5.3422666,8.17845 5.1740286,8.9422232 C 5.0759764,9.3737268 4.8129844,9.7409986 4.6604933,10.152412 C 4.5071946,10.562971 4.2914096,10.973127 4.3192947,11.423589 C 4.5245409,11.160024 4.6207447,10.836811 4.7911586,10.553255 C 4.8189831,10.799834 4.8058982,11.047953 4.7872652,11.294656 C 4.7645139,11.595012 4.8034668,11.894687 4.8270865,12.193721 C 4.7275002,12.531629 4.4597465,12.709037 4.4019123,12.923513 C 4.2247382,13.380652 4.0822997,13.501094 3.9220854,13.965428 C 3.7896071,14.332736 3.6858702,14.760104 3.5664802,15.131355 C 3.5175506,15.278091 3.450685,15.406333 3.3230938,15.499266 C 3.1785991,15.540823 3.0152067,15.64458 2.8685782,15.556727 C 2.6940228,15.463484 2.6570191,15.247879 2.6857489,15.070398 C 2.7629476,14.534162 3.0527024,14.060946 3.1907039,13.541433 C 3.4011786,12.830561 3.4485632,12.085181 3.6611718,11.375176 C 3.7383195,11.103835 3.7703266,10.821507 3.8614918,10.553867 C 4.0386688,10.051343 4.2624083,9.5668466 4.4812772,9.0812038 C 4.6802492,8.7548035 4.8378081,8.4060293 5.0376122,8.0799778 C 5.2219476,7.7772042 5.2890866,7.4259454 5.4253593,7.1027496 z "
       id="path2670"
       sodipodi:nodetypes="ccccccccccccccccccccc" />
    <path
       style="fill:#ae7f2b;stroke:none;stroke-width:0.1;stroke-linecap:butt;stroke-linejoin:miter;stroke-miterlimit:10"
       d="M 8.0486845,4.8961069 C 8.4616792,4.6585656 8.9567762,4.6467037 9.3952482,4.472107 C 9.6224377,4.689448 9.9654675,4.6511994 10.2469,4.7502012 C 10.018501,4.8737263 9.7529408,4.8767237 9.5079789,4.9482402 C 9.2700842,5.0062619 9.0286736,5.1106876 8.7794582,5.0587326 C 8.5341579,5.0125239 8.2861547,4.9740285 8.0486845,4.8961069 z "
       id="path2678" />
    <path
       style="fill:#bf8a2b;stroke:none;stroke-width:0.1;stroke-linecap:butt;stroke-linejoin:miter;stroke-miterlimit:10"
       d="M 9.3952482,4.472107 C 9.6651185,4.4014181 9.9474709,4.3190382 10.228307,4.3382656 C 10.329707,4.3560507 10.433102,4.368274 10.536499,4.3563294 C 10.979737,4.2991435 11.42696,4.2820361 11.871268,4.2330012 C 11.596486,4.4546106 11.226696,4.4739431 10.903077,4.5872384 C 10.683385,4.6338839 10.476276,4.7736175 10.2469,4.7502012 C 9.9654675,4.6511994 9.6224377,4.689448 9.3952482,4.472107 z "
       id="path2686" />
    <path
       style="fill:#ae7f2b;stroke:none;stroke-width:0.1;stroke-linecap:butt;stroke-linejoin:miter;stroke-miterlimit:10"
       d="M 7.6003602,5.9449849 C 7.8692962,5.8882244 8.1629137,5.8395674 8.4231553,5.957953 C 8.7917264,6.128611 9.143466,6.3325141 9.5023959,6.5218491 C 9.7107302,6.6226665 9.9369038,6.6840951 10.139311,6.7981241 C 10.097469,6.8189247 10.056068,6.8397519 10.01511,6.860604 C 10.407466,7.3876303 10.836864,7.8864251 11.236781,8.4078806 C 11.391731,8.6136754 11.571081,8.8024361 11.779444,8.9564874 C 11.836611,9.2004177 12.002503,9.3953652 12.135967,9.6017652 C 12.283534,9.8291736 12.457245,10.03869 12.645256,10.234722 C 12.659274,10.37337 12.697437,10.515342 12.666062,10.654117 C 12.596826,10.8309 12.336484,10.887966 12.204792,10.745323 C 12.021428,10.554402 11.856986,10.340854 11.621671,10.20751 C 11.365339,9.802386 10.949223,9.5390881 10.610223,9.2085904 C 10.26508,8.864841 9.856093,8.5942737 9.5023441,8.2603166 C 9.1753701,7.9635388 8.8518257,7.6623825 8.5029085,7.3907474 C 8.2174951,7.1741022 8.0867807,6.8319639 7.8820665,6.5507302 C 7.7498444,6.368502 7.6309193,6.1711566 7.6003602,5.9449849 z "
       id="path2690" />
    <path
       style="fill:#ae7f2b;fill-rule:nonzero;stroke:none"
       d="M 7.2551909,8.5134203 C 7.2409099,8.7559364 7.2829211,8.9958858 7.335644,9.2317415 C 7.2098725,10.047178 7.5311795,10.839367 7.6862581,11.628618 C 7.7671533,12.105572 7.9246164,12.565736 8.1040024,13.014361 C 8.159161,12.782539 8.1388136,12.544072 8.1462098,12.30845 C 8.3045784,11.935565 8.2585932,11.524296 8.2437766,11.131225 C 8.2364472,10.856579 8.1503195,10.593001 8.057756,10.336682 C 7.9682578,10.119753 7.800717,9.8531768 7.6817602,9.704818 C 7.410215,9.3992329 7.6797321,8.3472351 7.8202104,8.5400076 C 8.0503452,8.8037505 8.2802824,9.0690434 8.4705537,9.3633896 C 8.7168553,9.7465757 9.0702672,10.049304 9.2976633,10.446028 C 9.1051841,10.227615 9.3616615,10.487429 9.4003468,10.610071 C 9.4367994,10.725635 9.4976151,10.86677 9.5895631,10.961849 C 9.6608922,11.064693 9.7687932,11.17582 9.8919128,11.35402 C 10.060849,11.609189 10.097193,11.753608 10.195183,11.966854 C 10.369299,12.285363 10.334028,12.625883 10.173452,12.76093 C 10.090964,12.806163 10.012403,12.859713 9.9237607,12.891745 C 9.7671367,12.926173 9.6112059,12.843315 9.5141242,12.725405 C 9.2903907,12.473184 9.1075051,12.187824 8.8717164,11.945632 C 8.7562983,12.294474 8.8333138,12.666324 8.7538237,13.021013 C 8.6600993,13.441207 8.6287931,13.87343 8.5090461,14.288108 C 8.430539,14.389231 8.295583,14.419916 8.1858381,14.476702 L 8.1638376,14.450228 C 7.9630561,14.223599 7.8132126,13.957615 7.6036542,13.738522 C 7.6401202,13.513131 7.5398853,13.301236 7.4840176,13.088221 C 7.3914357,12.731548 7.2382655,12.392117 7.1728508,12.028373 C 7.0462692,11.339257 6.813672,10.670185 6.744267,9.9709229 C 6.7089966,9.4741016 6.6877145,8.9763176 6.6699003,8.478672 C 6.667915,8.2610605 6.5105619,8.0555509 6.598267,7.8375964 C 6.6914565,7.5538351 6.7439694,7.253396 6.8921302,6.9902443 C 7.0663944,7.2466974 7.2110924,7.5209771 7.3712005,7.7860906 C 7.3186567,7.7329736 7.2655188,7.6808947 7.2117883,7.6298539 C 7.1817038,7.9260978 7.2714245,8.2172278 7.2551909,8.5134203"
       id="path2700"
       sodipodi:nodetypes="ccccccccccccccccccccccccccccccccc" />
    <path
       style="fill:#bf8a28;fill-rule:nonzero;stroke:none"
       d="M 7.249262,8.5060072 C 7.265495,8.2098138 7.1757743,7.9186838 7.2058594,7.6224407 C 7.2595899,7.6734816 7.3127279,7.7255605 7.3652711,7.7786766 C 7.5153105,8.0297161 7.6500364,8.2897661 7.8142808,8.5325936 C 7.8836283,8.9830946 7.9922428,9.4260722 8.0838587,9.8723676 C 8.1206908,10.024701 8.103744,10.1825 8.0518271,10.329269 C 7.977719,10.213371 7.8928128,10.105017 7.8165358,9.9909441 C 7.6952662,9.7114983 7.5048204,9.4713975 7.3297146,9.2243276 C 7.2769916,8.988471 7.234981,8.7485235 7.249262,8.5060072 z "
       id="path2704" />
    <path
       style="fill:#ae7f2b;stroke:none;stroke-width:0.1;stroke-linecap:butt;stroke-linejoin:miter;stroke-miterlimit:10"
       d="M 10.181624,5.4289238 C 10.463435,5.3284115 10.760416,5.2797597 11.044295,5.184948 C 11.241246,5.1155797 11.454821,5.1338833 11.651747,5.1935132 C 11.891808,5.265445 12.134028,5.3305084 12.381345,5.3744554 C 12.942232,5.5401696 13.505374,5.6987841 14.066452,5.8640968 C 14.484069,5.9895844 14.87366,6.2157836 15.311115,6.2693617 C 15.356154,6.4226483 15.404634,6.5757119 15.473673,6.7205543 C 15.383358,6.8196387 15.301629,6.9637108 15.14935,6.9650581 C 14.875215,6.9812174 14.612834,6.8804769 14.343044,6.8510956 C 13.955374,6.8074089 13.576314,6.7097098 13.18736,6.6764443 C 12.965001,6.659814 12.729166,6.5765769 12.516328,6.6802943 C 12.338135,6.5850026 12.18715,6.4492423 12.016228,6.3433248 C 11.801826,6.2100258 11.567253,6.1139241 11.343547,5.9981443 C 11.118896,5.8840565 10.907019,5.7448935 10.671307,5.6533524 C 10.503475,5.5884531 10.337618,5.5181339 10.181624,5.4289238 z "
       id="path2706" />
    <path
       style="fill:none;stroke:#997028;stroke-width:0.00497884;stroke-linecap:butt;stroke-linejoin:miter;stroke-miterlimit:10"
       d="M 11.597012,5.097493 C 11.765349,5.0488508 11.934403,5.0017724 12.105702,4.9628643 C 12.774079,4.8187684 13.477783,4.7593769 14.149834,4.9156523 C 14.501443,5.0033903 14.861215,5.0530722 15.219405,5.1073296 C 15.646886,5.2378329 16.138134,5.2505796 16.473065,5.5832351 C 16.490073,5.7382088 16.549606,5.924038 16.424261,6.052122 C 16.30618,6.2116076 16.093664,6.1982972 15.916801,6.1989585 C 15.712156,6.1941965 15.511531,6.2368117 15.311115,6.2693617 C 14.87366,6.2157836 14.484069,5.9895844 14.066452,5.8640968 C 13.505374,5.6987841 12.942232,5.5401696 12.381345,5.3744554 C 12.130003,5.2551874 11.861874,5.1798541 11.597012,5.097493 z "
       id="path2710" />
    <path
       style="fill:#997028;fill-rule:nonzero;stroke:none"
       d="M 11.597012,5.097493 C 11.765349,5.0488508 11.934403,5.0017724 12.105702,4.9628643 C 12.774079,4.8187684 13.477783,4.7593769 14.149834,4.9156523 C 14.501443,5.0033903 14.861215,5.0530722 15.219405,5.1073296 C 15.646886,5.2378329 16.138134,5.2505796 16.473065,5.5832351 C 16.490073,5.7382088 16.549606,5.924038 16.424261,6.052122 C 16.30618,6.2116076 16.093664,6.1982972 15.916801,6.1989585 C 15.712156,6.1941965 15.511531,6.2368117 15.311115,6.2693617 C 14.87366,6.2157836 14.484069,5.9895844 14.066452,5.8640968 C 13.505374,5.6987841 12.942232,5.5401696 12.381345,5.3744554 C 12.130003,5.2551874 11.861874,5.1798541 11.597012,5.097493 z "
       id="path2712" />
    <path
       style="fill:#c28a28;stroke:none;stroke-width:0.1;stroke-linecap:butt;stroke-linejoin:miter;stroke-miterlimit:10"
       d="M 12.019188,4.8755821 C 12.305694,4.7628088 12.607854,4.6976365 12.898836,4.5974857 C 13.444127,4.407994 14.018096,4.3239666 14.582885,4.2120106 C 14.941407,4.1391852 15.304184,4.0789502 15.670773,4.0664068 C 15.890024,4.0579206 16.108268,4.0938926 16.327744,4.0867044 C 16.319185,4.1030184 16.302064,4.1356457 16.293504,4.1519604 C 16.580019,4.2581709 16.88791,4.3406207 17.092752,4.5844391 C 17.022394,4.6888795 16.969855,4.8158182 16.859465,4.8853215 C 16.700258,4.9587823 16.519775,4.9458098 16.349086,4.9528064 C 16.105596,4.9545296 15.864497,4.9972426 15.621091,4.9933698 C 15.284727,4.8811162 14.926572,4.8887517 14.577125,4.8601145 C 14.43209,4.8470529 14.283993,4.8561533 14.149834,4.9156523 C 13.477783,4.7593769 12.774079,4.8187684 12.105702,4.9628643 C 12.084074,4.9410441 12.040816,4.8974023 12.019188,4.8755821 z "
       id="path2714" />
    <path
       style="fill:#a8853a;stroke:none;stroke-width:0.1;stroke-linecap:butt;stroke-linejoin:miter;stroke-miterlimit:10"
       d="M 10.580794,6.3208682 C 10.667145,6.3253243 10.7566,6.3336563 10.83122,6.3827452 C 11.161475,6.575062 11.512919,6.7291845 11.839976,6.9275331 C 11.892657,6.9524486 11.916414,7.0064737 11.946074,7.053115 C 11.681882,7.0364045 11.46822,6.8701412 11.249577,6.7417579 C 11.025481,6.6029116 10.758604,6.5243105 10.580794,6.3208682 z "
       id="path2718" />
    <path
       style="fill:#c28a28;fill-opacity:1;stroke:none;stroke-width:0.1;stroke-linecap:butt;stroke-linejoin:miter;stroke-miterlimit:10"
       d="M 10.01511,6.860604 C 10.056068,6.8397519 10.097469,6.8189247 10.139311,6.7981241 C 10.371478,6.9374441 10.612302,7.0615086 10.851682,7.1884042 C 11.00733,7.3444411 11.128897,7.5403431 11.327711,7.6490915 C 11.504139,7.7489522 11.675639,7.8578643 11.831371,7.9880847 C 12.245656,8.3299106 12.746446,8.5462528 13.173275,8.8710923 C 13.366273,9.0582389 13.6055,9.1901281 13.799297,9.3759527 C 13.926498,9.4847849 13.940178,9.6919383 13.820023,9.810806 C 13.718072,9.9233655 13.546424,9.9156324 13.417131,9.86079 C 13.020245,9.6911458 12.693573,9.3339851 12.246307,9.2953594 C 12.09531,9.1760959 11.935847,9.0680206 11.779444,8.9564874 C 11.571081,8.8024361 11.391731,8.6136754 11.236781,8.4078806 C 10.836864,7.8864251 10.407466,7.3876303 10.01511,6.860604 z "
       id="path2722" />
    <path
       style="fill:#9c7028;stroke:none;stroke-width:0.1;stroke-linecap:butt;stroke-linejoin:miter;stroke-miterlimit:10"
       d="M 7.6862581,11.628618 C 7.5311795,10.839367 7.2098725,10.047178 7.335644,9.2317415 C 7.51075,9.4788114 7.7011951,9.7189115 7.8224653,9.9983574 C 7.8463668,10.451835 7.947546,10.895779 7.9946971,11.346691 C 8.0434646,11.667505 8.1292079,11.983061 8.1462098,12.30845 C 8.1388136,12.544072 8.159161,12.782539 8.1040024,13.014361 C 7.9246164,12.565736 7.7671533,12.105572 7.6862581,11.628618 z "
       id="path2726" />
    <path
       style="fill:#bf8a28;stroke:none;stroke-width:0.1;stroke-linecap:butt;stroke-linejoin:miter;stroke-miterlimit:10"
       d="M 6.1256618,11.731361 C 6.1292121,11.213629 6.0969535,10.676151 6.2966895,10.18568 C 6.3740399,10.376153 6.4233768,10.581739 6.546717,10.75066 C 6.5148637,10.9364 6.4941397,11.127953 6.5388769,11.313644 C 6.6421,11.743066 6.6582749,12.188099 6.6439267,12.627599 C 6.6322682,12.934575 6.5349498,13.231491 6.5309254,13.539119 C 6.522571,13.703074 6.5364472,13.873187 6.47894,14.030275 C 6.4280414,14.179271 6.2483826,14.19466 6.1203547,14.242867 C 6.1177938,13.97999 6.0940107,13.717877 6.0884156,13.455144 C 6.0804777,13.172848 6.1400476,12.892436 6.1141672,12.610054 C 6.0895283,12.317057 6.1299405,12.024436 6.1256618,11.731361 z "
       id="path2730" />
    <path
       style="fill:none;stroke:#bf8a28;stroke-width:0.00497884;stroke-linecap:butt;stroke-linejoin:miter;stroke-miterlimit:10"
       d="M 8.9902709,8.194055 C 9.1577032,8.2890351 9.2970611,8.422982 9.4142766,8.5739361 C 9.6306637,8.8523452 9.9119746,9.0700235 10.152043,9.3269204 C 10.295831,9.4803068 10.45092,9.6232874 10.615502,9.7550614 C 10.858245,10.256688 11.258387,10.664172 11.685978,11.01695 C 11.805835,11.121174 11.938476,11.21809 12.025014,11.353652 C 12.102293,11.469268 12.078143,11.641071 11.963837,11.724136 C 11.876512,11.77426 11.776799,11.795646 11.681687,11.824815 C 11.650416,11.442574 11.342413,11.182848 11.123943,10.89533 C 10.415379,9.9929699 9.67347,9.1150958 8.9902709,8.194055 z "
       id="path2734" />
    <path
       style="fill:#bf8a28;fill-rule:nonzero;stroke:none"
       d="M 8.9902709,8.194055 C 9.1577032,8.2890351 9.2970611,8.422982 9.4142766,8.5739361 C 9.6306637,8.8523452 9.9119746,9.0700235 10.152043,9.3269204 C 10.295831,9.4803068 10.45092,9.6232874 10.615502,9.7550614 C 10.858245,10.256688 11.258387,10.664172 11.685978,11.01695 C 11.805835,11.121174 11.938476,11.21809 12.025014,11.353652 C 12.102293,11.469268 12.078143,11.641071 11.963837,11.724136 C 11.876512,11.77426 11.776799,11.795646 11.681687,11.824815 C 11.650416,11.442574 11.342413,11.182848 11.123943,10.89533 C 10.415379,9.9929699 9.67347,9.1150958 8.9902709,8.194055 z "
       id="path2736" />
    <path
       style="fill:none;stroke:#b07828;stroke-width:0.00497884;stroke-linecap:butt;stroke-linejoin:miter;stroke-miterlimit:10"
       d="M 10.851682,7.1884042 C 11.02327,7.2810819 11.192166,7.3792005 11.353736,7.4887194 C 11.714019,7.8683096 12.265309,7.9183992 12.693976,8.1874567 C 12.86476,8.4075014 13.018412,8.6398015 13.173275,8.8710923 C 12.746446,8.5462528 12.245656,8.3299106 11.831371,7.9880847 C 11.675639,7.8578643 11.504139,7.7489522 11.327711,7.6490915 C 11.128897,7.5403431 11.00733,7.3444411 10.851682,7.1884042 z "
       id="path2738" />
    <path
       style="fill:#b07828;fill-rule:nonzero;stroke:none"
       d="M 10.851682,7.1884042 C 11.02327,7.2810819 11.192166,7.3792005 11.353736,7.4887194 C 11.714019,7.8683096 12.265309,7.9183992 12.693976,8.1874567 C 12.86476,8.4075014 13.018412,8.6398015 13.173275,8.8710923 C 12.746446,8.5462528 12.245656,8.3299106 11.831371,7.9880847 C 11.675639,7.8578643 11.504139,7.7489522 11.327711,7.6490915 C 11.128897,7.5403431 11.00733,7.3444411 10.851682,7.1884042 z "
       id="path2740" />
    <path
       style="fill:#b07828;stroke:none;stroke-width:0.1;stroke-linecap:butt;stroke-linejoin:miter;stroke-miterlimit:10"
       d="M 4.3842696,12.611952 C 4.4421036,12.397478 4.6586038,12.308355 4.8270865,12.193721 C 4.8465569,12.450468 4.89215,12.704309 4.9169662,12.96056 C 4.8709906,13.112743 4.8238249,13.265185 4.8010069,13.422872 C 4.5096418,13.794999 4.1077404,14.276797 3.8341368,14.662365 C 3.7398105,14.390459 3.8896635,14.05399 4.0277308,13.719539 C 4.1100236,13.39695 4.3479021,13.238296 4.3750201,12.905396 C 4.3920567,12.736168 4.408539,12.604274 4.3842696,12.611952 z "
       id="path2742"
       sodipodi:nodetypes="cccccccc" />
    <path
       style="fill:#b58f4a;fill-rule:nonzero;stroke:none"
       d="M 6.5388769,11.313644 C 6.4941389,11.127954 6.5148637,10.9364 6.546717,10.75066 C 6.6905716,10.941351 6.6652699,11.191481 6.7101133,11.413688 C 6.747715,11.741392 6.8591588,12.052786 6.9583372,12.365671 C 6.8378573,12.43324 6.7316773,12.522005 6.6439267,12.627599 C 6.6582749,12.188099 6.6421,11.743066 6.5388769,11.313644 z "
       id="path2748" />
    <path
       style="fill:#9c7028;stroke:none;stroke-width:0.1;stroke-linecap:butt;stroke-linejoin:miter;stroke-miterlimit:10"
       d="M 3.7297581,13.923032 C 3.8899723,13.458698 4.2070953,13.069092 4.3842696,12.611952 C 4.408539,12.604274 4.4570785,12.588916 4.4813479,12.581238 C 4.4542307,12.914137 4.360218,13.237438 4.2779262,13.560026 C 4.1596751,13.887382 4.0247315,14.208977 3.9363029,14.546316 C 3.8308476,14.773829 3.7900344,15.02294 3.6990854,15.255147 C 3.6431565,15.412094 3.4589334,15.441069 3.3230938,15.499266 C 3.3286247,15.345136 3.350851,15.191554 3.3997796,15.044816 C 3.5191704,14.673567 3.5972797,14.29034 3.7297581,13.923032 z "
       id="path2754" />
    <path
       style="fill:#b38f4a;stroke:none;stroke-width:0.1;stroke-linecap:butt;stroke-linejoin:miter;stroke-miterlimit:10"
       d="M 12.693976,8.1874567 C 12.265309,7.9183992 11.714019,7.8683096 11.353736,7.4887194 C 11.806927,7.6768304 12.285372,7.7928546 12.752787,7.9401008 C 13.172666,8.038664 13.5711,8.208997 13.992978,8.3002359 C 14.155849,8.3337309 14.301927,8.4142009 14.444256,8.4966532 C 14.325458,8.5441119 14.200209,8.6022075 14.069228,8.5736285 C 13.59843,8.4919909 13.153414,8.3120125 12.693976,8.1874567 z "
       id="path2762" />
    <path
       style="fill:#c28a2b;stroke:none;stroke-width:0.1;stroke-linecap:butt;stroke-linejoin:miter;stroke-miterlimit:10"
       d="M 12.516328,6.6802943 C 12.729166,6.5765769 12.965001,6.659814 13.18736,6.6764443 C 13.576314,6.7097098 13.955374,6.8074089 14.343044,6.8510956 C 14.612834,6.8804769 14.875215,6.9812174 15.14935,6.9650581 C 15.301629,6.9637108 15.383358,6.8196387 15.473673,6.7205543 C 15.543634,6.846749 15.630578,6.9636742 15.692691,7.0944686 C 15.784925,7.2697148 15.60541,7.5032624 15.41055,7.4699473 C 15.143953,7.4358758 14.90501,7.3032206 14.652863,7.2202016 C 14.005773,7.0179189 13.358415,6.7772338 12.671511,6.7597508 C 12.618945,6.7339138 12.567218,6.7074282 12.516328,6.6802943 z "
       id="path2766" />
    <path
       style="fill:#b58f4a;fill-rule:nonzero;stroke:none"
       d="M 4.8010069,13.422872 C 4.8238241,13.265186 4.8709906,13.112743 4.9169654,12.96056 C 4.9738558,13.254052 5.0775217,13.538037 5.1105325,13.836188 C 5.1269835,13.967488 5.1320392,14.100948 5.1654433,14.229781 C 5.1987177,14.364275 5.3097941,14.458747 5.4036042,14.554321 C 5.2490289,14.524021 5.0390939,14.526411 4.9806152,14.34673 C 4.8759709,14.048194 4.9210882,13.71904 4.8010069,13.422872 z "
       id="path2776" />
    <path
       style="fill:#b07828;stroke:none;stroke-width:0.1;stroke-linecap:butt;stroke-linejoin:miter;stroke-miterlimit:10"
       d="M 15.219405,5.1073296 C 15.352137,5.0663475 15.484267,5.0217206 15.621091,4.9933698 C 15.864497,4.9972426 16.105596,4.9545296 16.349086,4.9528064 C 16.519775,4.9458098 16.700258,4.9587823 16.859465,4.8853215 C 16.969855,4.8158182 17.022394,4.6888795 17.092752,4.5844391 C 17.183282,4.6696902 17.288791,4.7436742 17.357734,4.8489886 C 17.448127,5.0376023 17.346569,5.2662885 17.18545,5.3831334 C 16.981822,5.5353864 16.720468,5.5699886 16.473065,5.5832351 C 16.138134,5.2505796 15.646886,5.2378329 15.219405,5.1073296 z "
       id="path2778" />
    <path
       style="fill:#9c7028;stroke:none;stroke-width:0.1;stroke-linecap:butt;stroke-linejoin:miter;stroke-miterlimit:10"
       d="M 12.135967,9.6017652 C 12.002503,9.3953652 11.836611,9.2004177 11.779444,8.9564874 C 11.935847,9.0680206 12.09531,9.1760959 12.246307,9.2953594 C 12.419431,9.4755905 12.610266,9.6530204 12.713767,9.8841637 C 12.767444,10.003859 12.681791,10.123299 12.645256,10.234722 C 12.457245,10.03869 12.283534,9.8291736 12.135967,9.6017652 z "
       id="path2782" />
    <path
       style="fill:url(#linearGradient6513);fill-opacity:1;fill-rule:nonzero;stroke:none"
       d="M 19.70296,4.541488 C 19.853485,4.3636291 20.000132,4.0384357 20.192415,3.8971546 C 20.325689,4.0429628 20.635003,4.1199043 20.761518,4.267837 C 20.902564,4.4327648 21.42416,4.7031328 21.567206,4.8736608 C 21.728064,5.0654196 22.127762,5.3253462 22.343919,5.5719794 C 22.489684,5.7382972 23.030181,6.1080263 23.197521,6.3205879 C 23.423054,6.6070688 23.826758,6.8808838 24.077529,7.1466815 C 24.198971,7.2753996 24.780478,8.0545394 24.937731,8.2124489 C 25.250238,8.5262634 25.258219,9.0847192 25.349766,9.3891824 C 25.489491,9.8538698 25.679865,10.395672 25.786065,10.869934 C 25.946518,11.58646 26.203418,12.295124 26.222846,13.030821 C 26.235092,13.494519 26.276446,13.954123 26.323731,14.414191 C 26.376033,14.923071 26.408405,15.433168 26.435514,15.943564 C 26.445676,16.134859 26.450226,16.3272 26.493457,16.514954 C 26.59489,16.955487 26.516559,17.409187 26.486945,17.853709 C 26.465923,18.169249 26.431306,18.484004 26.433507,18.800803 C 26.435457,19.081379 26.448596,19.363532 26.415547,19.642725 C 26.34694,20.222336 26.341211,20.811184 26.205376,21.38126 C 26.099495,21.825629 26.086266,22.1603 25.982411,22.605266 C 25.905072,22.936638 25.966718,23.332561 25.860383,23.756327 C 25.784782,24.057607 25.708462,24.54786 25.630478,24.871102 C 25.534503,25.268928 25.540799,25.484646 25.389459,25.871034 C 25.280336,26.149642 25.272876,26.74452 25.155162,26.925618 C 24.908608,26.825264 24.532616,26.650693 24.263284,26.617826 C 23.998552,26.585525 23.737716,26.617959 23.474661,26.625203 C 23.097461,26.635592 22.717328,26.637471 22.339546,26.608511 C 22.064855,26.587456 21.792281,26.645497 21.517719,26.63205 C 21.209668,26.616967 20.900395,26.651003 20.593543,26.616688 C 20.319822,26.586077 20.0487,26.633938 19.773379,26.603819 C 19.196868,26.540755 18.611815,26.578069 18.031508,26.587184 C 17.839124,26.590206 17.64866,26.631987 17.455731,26.61954 C 16.981627,26.58895 16.504633,26.671395 16.03224,26.601218 C 15.563838,26.531635 15.088478,26.487969 14.629889,26.377307 C 14.247881,26.285125 13.857447,26.245357 13.481567,26.129731 C 13.140057,26.024679 12.775086,26.071728 12.427038,26.007098 C 11.899928,25.909215 11.395445,25.718603 10.870847,25.608696 C 10.559161,25.543396 10.286158,25.368122 9.9831422,25.276507 C 9.4129475,25.104112 8.8620088,24.877023 8.3121731,24.6508 C 8.078841,24.554798 8.0318705,24.541481 7.6774471,24.407816 C 7.5393285,24.355726 7.2957215,24.226452 7.0263011,24.046259 C 6.7631989,23.87029 6.6283765,23.722833 6.4112553,23.494995 C 6.2919139,23.369764 6.1708537,23.291388 6.0746484,23.159158 C 5.7992288,22.780609 5.8803364,22.693151 5.588434,22.432537 C 5.4369879,22.297323 5.0318285,21.888385 4.9596498,21.717111 C 4.7954027,21.327369 4.4673087,21.039824 4.2316036,20.663697 C 3.9623867,20.234093 3.7539056,19.7478 3.6132318,19.557739 C 3.3842311,19.248343 3.2955187,18.788043 3.0481601,18.495357 C 2.8617697,18.274813 2.7312673,17.594698 2.5514691,17.366655 C 3.0396682,17.038358 5.0588808,16.647679 5.5892974,16.408597 C 6.371352,16.056089 7.1238536,15.634472 7.921989,15.321871 C 8.3680561,15.147162 9.580248,14.464729 10.2916,14.25193 C 10.916098,14.065115 11.93454,13.244856 12.918306,12.427521 C 13.56861,11.887232 14.706722,10.632963 15.140353,10.083427 C 15.55578,9.5569554 16.203284,8.9304001 16.321288,8.7455249 C 16.584629,8.332952 16.841586,7.9106225 17.171035,7.5473446 C 17.807828,6.8451667 18.275555,6.0093747 18.945878,5.3364938 C 19.204277,5.0771111 19.467242,4.8200096 19.70296,4.541488 z "
       id="path2796"
       sodipodi:nodetypes="ccsssssssssssssssssssscsssssssssssssssssssssssscsssssssss" />
    <path
       style="opacity:0.97142855;fill:url(#linearGradient6521);fill-opacity:1;fill-rule:nonzero;stroke:none"
       d="M 18.397617,6.4725963 C 18.34835,6.5116698 18.302787,6.558633 18.264121,6.6069792 C 17.869792,7.1000122 17.455354,7.5782223 17.091385,8.093787 C 16.083411,9.5215827 16.787159,8.3122401 15.908111,9.4736372 C 15.532197,9.9702944 15.087163,10.413668 14.723291,10.919399 C 14.559238,11.147408 14.395772,11.382329 14.188677,11.567885 C 13.584172,12.109519 11.774955,13.743835 11.547207,13.856135 C 11.145419,14.054249 10.755776,14.277949 10.350292,14.468673 C 10.143071,14.566141 9.9059663,14.607219 9.739013,14.777868 C 9.4656824,15.057248 9.0818936,15.189901 8.7294449,15.343311 C 8.2969668,15.531556 7.864294,15.719411 7.4500974,15.944569 C 7.3633762,15.99171 7.2772522,16.061665 7.2840039,16.173878 C 7.3098507,16.603433 7.4650759,17.010632 7.6110908,17.410922 C 7.8077055,17.949929 8.1210329,18.437149 8.3267305,18.972163 C 8.5925059,19.663444 9.0538312,20.257563 9.5170961,20.829666 C 9.8090651,21.190231 10.101474,21.551081 10.382798,21.92007 C 10.685158,22.316651 11.066741,22.642298 11.438542,22.970737 C 12.007492,23.473335 12.554188,24.01654 13.221725,24.396192 C 13.619614,24.622486 13.957721,24.945804 14.384686,25.119992 C 14.973823,25.360337 15.59078,25.52476 16.203174,25.695671 C 16.944858,25.902664 17.70516,26.04316 18.459768,26.198579 C 18.909739,26.291253 19.370834,26.356953 19.832672,26.336849 C 20.10556,26.32497 20.36888,26.418368 20.641301,26.424059 C 21.008166,26.431728 21.373606,26.474034 21.740941,26.454115 C 22.121093,26.433504 22.501721,26.472 22.881637,26.483624 C 23.215075,26.493828 23.547314,26.450106 23.880671,26.4677 C 24.047098,26.476478 24.563175,26.504532 24.777022,26.528908 C 24.861237,26.53851 24.940603,26.579505 25.026921,26.585964 C 24.937692,25.69911 25.230484,24.762617 25.321021,23.876849 C 25.412401,22.982785 25.467643,22.079726 25.661268,21.199495 C 25.724016,20.914235 25.729708,20.619722 25.792841,20.334401 C 25.871396,19.979378 25.858446,19.614484 25.899818,19.254985 C 25.96749,18.666984 25.899069,18.076645 25.858786,17.489669 C 25.807583,16.743607 25.534324,16.032334 25.438417,15.291955 C 25.366024,14.733107 25.21948,14.185707 25.027373,13.656621 C 24.813453,13.067457 24.446245,12.553757 24.144694,12.008239 C 23.982971,11.715677 23.743694,11.475685 23.560474,11.19795 C 23.085702,10.478269 22.511907,9.8305853 21.980586,9.1527166 C 21.576814,8.6375785 21.112318,8.1647007 20.578692,7.7809836 C 20.388061,7.6439077 20.204899,7.49889 20.020448,7.3543583 C 19.716178,7.1159391 19.380596,6.9205291 19.064118,6.699361 C 18.891152,6.5784869 18.709503,6.4269022 18.495294,6.4151447 C 18.457299,6.4130593 18.427175,6.4491525 18.397617,6.4725963 z "
       id="path2800"
       sodipodi:nodetypes="csssssssssssssssssssssssssscsssssssssssssss" />
    <path
       style="opacity:0.96507939;fill:url(#linearGradient6529);fill-opacity:1;fill-rule:nonzero;stroke:none"
       d="M 15.691551,9.7956432 C 15.873846,9.5860518 15.981583,9.2795964 16.227597,9.1566864 C 16.347919,9.0965741 16.497973,9.1991817 16.620652,9.2542708 C 16.862432,9.3628431 17.099825,9.4837423 17.323821,9.6254054 C 18.293197,10.238469 19.021821,11.141042 19.917444,11.844443 C 20.232112,12.091576 20.44262,12.434736 20.710705,12.725005 C 21.184612,13.238123 21.597353,13.801317 22.039525,14.340565 C 22.447015,14.837514 22.850954,15.349435 23.114334,15.938887 C 23.329961,16.42148 23.550795,16.904504 23.690991,17.415788 C 23.811479,17.855202 23.893941,18.303006 23.963022,18.752474 C 24.010793,19.063306 24.012464,19.382537 24.107316,19.685034 C 24.252972,20.14957 24.296557,20.637162 24.320871,21.120177 C 24.346529,21.629904 24.390592,22.138296 24.418232,22.647892 C 24.455645,23.33754 24.428424,24.036739 24.590819,24.714453 C 24.730274,25.29644 24.93835,25.872938 24.939153,26.478014 C 24.871168,26.490087 24.800322,26.53302 24.737081,26.514007 C 24.49177,26.440265 24.221398,26.455902 23.972492,26.402034 C 23.636199,26.329255 23.293462,26.288948 22.955747,26.219352 C 22.585573,26.143072 22.211662,26.086754 21.836991,26.038262 C 21.543821,26.000318 21.257185,25.921199 20.962097,25.899454 C 20.711529,25.88099 20.461207,25.944671 20.212039,25.914151 C 19.487262,25.825371 18.766758,25.650191 18.102591,25.352071 C 17.1933,24.943924 16.305931,24.461354 15.537788,23.817717 C 15.077787,23.432278 14.607057,23.0584 14.172316,22.645057 C 13.862073,22.350082 13.61088,22.002831 13.329726,21.682332 C 13.169163,21.499303 13.022291,21.305486 12.876232,21.111474 C 12.647951,20.808248 12.336635,20.580003 12.102856,20.281492 C 11.755291,19.837688 11.409535,19.39218 11.046614,18.960821 C 10.522071,18.337364 10.204091,17.585429 9.8236883,16.877153 C 9.5499556,16.367485 9.2414085,15.844382 9.2001752,15.252953 C 9.187657,15.073401 9.2235458,14.858817 9.4108092,14.773582 C 9.9832106,14.513048 10.56558,14.266853 11.109075,13.948949 C 11.28821,13.84417 11.515611,13.867688 11.688348,13.767721 C 11.821646,13.690576 11.805567,13.494012 11.867737,13.363008 C 11.911541,13.270706 12.015965,13.220005 12.09896,13.160066 C 12.503501,12.867918 12.885095,12.546573 13.280394,12.242566 C 13.664634,11.947163 13.709175,11.834689 13.87336,11.746706 C 14.183823,11.580336 14.437917,11.342236 14.636068,11.053806 C 14.945602,10.603255 15.332304,10.208686 15.691551,9.7956432 z "
       id="path2808"
       sodipodi:nodetypes="cssssssssssssscssssssssssssssssssssssss" />
    <path
       style="opacity:0.94999994;fill:url(#linearGradient6571);fill-opacity:1;fill-rule:nonzero;stroke:none"
       d="M 13.557594,12.295903 C 13.751212,12.125286 13.886442,11.873937 14.114678,11.762683 C 14.346498,11.64968 14.583054,11.883239 14.808057,11.961892 C 15.256562,12.118678 15.708705,12.271852 16.135267,12.482075 C 16.931749,12.874606 17.637117,13.421722 18.305478,13.997402 C 18.65121,14.295192 18.957222,14.634928 19.302608,14.933531 C 19.598537,15.18938 19.814172,15.518701 20.060964,15.818437 C 20.598478,16.471265 21.096662,17.156624 21.670704,17.779282 C 21.866155,17.991287 21.912995,18.282716 22.052815,18.526254 C 22.365185,19.070342 22.609242,19.650182 22.828347,20.236093 C 23.110122,20.989582 23.259057,21.784539 23.344086,22.582552 C 23.382338,22.941567 23.390216,23.308438 23.486631,23.657067 C 23.629943,24.175277 23.84278,24.673733 23.984853,25.193399 C 24.064105,25.483282 24.216869,25.751095 24.263263,26.050546 C 23.605783,25.922514 22.989622,25.634225 22.332032,25.515386 C 21.911149,25.439328 21.47282,25.411569 21.081703,25.22801 C 20.77356,25.083389 20.4201,25.073533 20.121275,24.907061 C 19.780502,24.717221 19.400873,24.598978 19.082082,24.370825 C 18.567807,24.002766 18.03279,23.662847 17.536286,23.271178 C 17.19862,23.004811 16.823767,22.782825 16.525013,22.470967 C 16.089356,22.016201 15.551195,21.664393 15.157573,21.169866 C 14.89825,20.844063 14.621364,20.531007 14.396335,20.17993 C 14.145054,19.787902 13.816247,19.447047 13.607111,19.028042 C 13.426292,18.665769 13.204415,18.325837 13.013878,17.969183 C 12.791026,17.552042 12.535453,17.15331 12.329368,16.727225 C 11.94388,15.93022 11.713063,15.04484 11.765156,14.160913 C 11.776803,13.963299 11.786029,13.739838 11.913239,13.58125 C 12.116708,13.327586 12.471116,13.247716 12.689296,13.00215 C 12.939094,12.721001 13.276768,12.543368 13.557594,12.295903 z "
       id="path2812"
       sodipodi:nodetypes="csssssssssssscsssssssssssssss" />
    <path
       style="fill:none;stroke:#c28a28;stroke-width:0.00497884;stroke-linecap:butt;stroke-linejoin:miter;stroke-miterlimit:10"
       d="M 8.0371196,10.339134 C 8.0255305,10.024557 7.9024618,9.7217985 7.9303174,9.4047444 C 8.1461284,9.6013705 8.3292034,9.8291398 8.5216825,10.047551 C 8.7364368,10.350246 8.9783303,10.63312 9.2446519,10.892877 C 9.3737079,11.275774 9.6698747,11.586766 9.7580634,11.982743 C 9.7891206,12.200762 9.5478071,12.274331 9.397471,12.362455 C 9.1749607,12.12934 8.9753748,11.876086 8.7500049,11.645861 C 8.5371079,11.426074 8.3265657,11.200981 8.1576307,10.945813 C 8.0345108,10.767614 8.055627,10.543539 8.0371196,10.339134 z "
       id="path2770" />
    <path
       style="fill:#c28a28;fill-rule:nonzero;stroke:none"
       d="M 8.0371196,10.339134 C 8.0255305,10.024557 7.9024618,9.7217985 7.9303174,9.4047444 C 8.1461284,9.6013705 8.3292034,9.8291398 8.5216825,10.047551 C 8.7364368,10.350246 8.9783303,10.63312 9.2446519,10.892877 C 9.3737079,11.275774 9.6698747,11.586766 9.7580634,11.982743 C 9.7891206,12.200762 9.5478071,12.274331 9.397471,12.362455 C 9.1749607,12.12934 8.9753748,11.876086 8.7500049,11.645861 C 8.5371079,11.426074 8.3265657,11.200981 8.1576307,10.945813 C 8.0345108,10.767614 8.055627,10.543539 8.0371196,10.339134 z "
       id="path2772" />
    <g
       id="g6531"
       transform="matrix(1.0240413,0,0,1.0517172,-0.2090006,-0.8336361)">
      <path
         sodipodi:nodetypes="cccccccccccccccsszzssssszzzzssssccccccccccccccc"
         id="path2548"
         d="M 19.044063,11.747504 C 19.365703,11.723159 19.688701,11.749425 20.010967,11.735734 C 20.666548,11.647335 21.331723,11.677002 21.991104,11.69184 C 22.797692,11.855226 23.603332,12.041197 24.382691,12.312426 C 24.968834,12.5229 25.540107,12.898349 26.186506,12.820864 C 26.922997,12.689093 27.644341,12.422324 28.401013,12.437369 C 28.642536,12.440799 28.894249,12.424915 29.122601,12.521814 C 29.417156,12.649149 29.730416,12.743205 29.995563,12.93156 C 30.222042,13.093692 30.359996,13.350441 30.457118,13.608251 C 30.659143,14.200597 30.583835,14.835534 30.598761,15.450049 C 30.612331,15.767141 30.461824,16.054314 30.33035,16.331045 C 30.170467,16.667809 29.897747,16.924431 29.674285,17.215087 C 29.387967,17.595866 28.993218,17.878915 28.749004,18.29423 C 28.373406,18.667661 28.251543,19.204482 28.115832,19.701978 C 27.984707,20.334018 27.810351,20.956105 27.61637,21.570614 C 27.329671,22.261905 27.066442,22.966541 26.709827,23.624818 C 26.484499,24.040754 26.306803,24.135856 26.071626,24.566134 C 25.834713,24.999585 25.614614,25.417217 25.302341,25.765504 C 24.961403,26.145764 24.764586,26.357107 24.234875,26.86944 C 23.70515,27.381786 23.434183,27.648016 23.039188,27.983543 C 22.677099,28.291116 22.367063,28.511504 21.834316,28.829989 C 21.454909,29.056806 21.009385,29.09857 20.270462,29.127896 C 19.503507,29.158333 19.224514,29.243197 18.625102,29.073061 C 18.358233,28.997311 18.166038,28.877387 17.749485,28.641345 C 17.363493,28.422622 17.203179,28.32735 16.832151,27.993649 C 16.476093,27.673412 16.490826,27.788323 16.094393,27.381077 C 15.684306,26.959805 15.680267,26.952434 15.241343,26.388529 C 14.813072,25.83831 14.76842,25.834136 14.53135,25.535414 C 14.280805,25.219709 14.230128,24.933268 14.032463,24.687602 C 13.732918,24.315315 13.744866,24.216782 13.577587,23.960195 C 13.315698,23.558489 13.134249,23.285943 12.972753,22.832498 C 12.785427,22.306536 12.539606,21.799757 12.41992,21.251062 C 12.326246,20.821616 12.147049,20.411308 12.127863,19.96678 C 12.114627,19.534616 12.009373,19.11392 11.952562,18.687147 C 11.929665,18.478254 11.952046,18.251556 11.834733,18.066743 C 11.50193,17.534649 11.086749,17.061965 10.650912,16.615879 C 10.445432,16.398644 10.25747,16.153426 10.160763,15.864876 C 10.036042,15.500413 9.8847169,15.130367 9.8989423,14.737025 C 9.9132162,14.380521 9.8547088,14.012556 9.9696284,13.667662 C 10.067418,13.293079 10.236057,12.930008 10.517419,12.661822 C 10.942016,12.195448 11.603446,12.077505 12.201202,12.084848 C 12.607721,12.046755 13.017413,12.002258 13.425973,12.041504 C 13.959543,12.145375 14.488721,12.299083 14.970168,12.560654 C 15.148239,12.647561 15.319406,12.76372 15.515632,12.802614 C 16.00359,12.606204 16.466576,12.331187 16.986573,12.224182 C 17.441291,12.135509 17.856273,11.890781 18.322026,11.85337 C 18.56423,11.830502 18.802776,11.778912 19.044063,11.747504 z "
         style="fill:#000000;fill-rule:nonzero;stroke:none" />
      <path
         sodipodi:nodetypes="czzzzzzzzzzzzzzzzzzzzzzzzzzzzzzzzzzzzzzzzzzzz"
         id="path2552"
         d="M 19.321414,12.568099 C 19.663323,12.506369 19.801137,12.534669 20.292817,12.5328 C 20.784496,12.530928 21.55613,12.452638 22.274441,12.633577 C 22.992752,12.814515 24.033564,13.092473 24.601659,13.351745 C 25.169756,13.611018 25.476297,13.682072 25.824195,13.772739 C 26.172094,13.863408 26.436286,13.795497 26.704643,13.774139 C 26.972999,13.752782 27.162454,13.701767 27.435825,13.650155 C 27.709197,13.598544 28.075523,13.465144 28.340402,13.412362 C 28.605281,13.35958 28.754637,13.469747 28.967312,13.550956 C 29.179987,13.632164 29.411466,13.645246 29.582175,13.951644 C 29.752883,14.258041 29.862399,14.846135 29.809078,15.223166 C 29.755757,15.600195 29.540522,15.819453 29.328934,16.084838 C 29.117347,16.350222 28.891704,16.744855 28.733629,16.955305 C 28.575553,17.165757 28.440463,17.090878 28.300626,17.280922 C 28.16079,17.470966 27.952058,17.745852 27.863687,18.013017 C 27.775318,18.280183 27.723629,18.569651 27.649681,18.801761 C 27.575733,19.033872 27.541594,19.046333 27.48096,19.423349 C 27.420326,19.800365 27.219412,20.433137 26.997519,20.986808 C 26.775624,21.540478 26.447484,22.302156 26.231445,22.770749 C 26.015406,23.239341 25.91982,23.386706 25.625584,23.752366 C 25.331347,24.118028 25.069042,24.744566 24.700176,25.123072 C 24.33131,25.501577 24.07422,25.889487 23.68473,26.226056 C 23.295237,26.562624 22.94976,26.935539 22.506277,27.280227 C 22.062795,27.624914 21.429987,28.05463 21.029062,28.26681 C 20.628136,28.478988 20.46377,28.523367 20.117605,28.506531 C 19.771439,28.489697 19.405531,28.578958 19.00636,28.401748 C 18.607188,28.224539 18.162733,28.086087 17.707013,27.717382 C 17.251296,27.348677 16.594578,26.833035 16.201803,26.344125 C 15.809029,25.855218 15.288854,25.432311 15.090828,25.052586 C 14.892801,24.672862 14.818015,24.635065 14.699553,24.31912 C 14.58109,24.003177 14.376696,23.777788 14.150361,23.277539 C 13.924028,22.777292 13.576161,21.810355 13.420408,21.29469 C 13.264653,20.779024 13.152456,20.545928 13.109724,20.221032 C 13.066993,19.896137 12.998639,19.763894 12.984062,19.384754 C 12.969484,19.005614 12.857165,18.32608 12.815532,17.967625 C 12.773898,17.60917 12.902319,17.510188 12.673224,17.238315 C 12.444129,16.966442 11.90501,16.587303 11.650589,16.26523 C 11.396169,15.943156 11.136956,15.791788 11.014224,15.445419 C 10.89149,15.099049 10.679364,14.79069 10.768541,14.343041 C 10.857717,13.895393 11.144392,13.339942 11.637593,13.07875 C 12.130794,12.817558 12.736025,12.80854 13.361733,12.893455 C 13.987441,12.97837 14.80531,13.547576 15.284201,13.660615 C 15.763094,13.773654 15.741653,13.82772 16.196208,13.559818 C 16.650764,13.291917 17.720852,12.980309 18.237895,12.796483 C 18.75494,12.612656 18.979503,12.629829 19.321414,12.568099 z "
         style="fill:url(#linearGradient6563);fill-opacity:1;fill-rule:nonzero;stroke:none" />
      <path
         sodipodi:nodetypes="ccccccsccccccccccc"
         id="path2556"
         d="M 12.003548,14.03992 C 12.425521,13.958582 12.827161,13.779575 13.244635,13.686223 C 13.370584,13.812311 13.517538,13.910666 13.697812,13.929955 C 13.672661,14.159447 13.698444,14.388357 13.716784,14.617099 C 13.224745,14.898415 13.227082,14.893091 12.976986,15.554877 C 12.886803,15.586523 12.799488,15.624953 12.712441,15.663387 C 12.594781,15.641887 12.477108,15.620687 12.359501,15.601573 C 12.167024,15.570386 11.974472,15.537793 11.786326,15.486209 C 11.874439,15.410632 11.964603,15.337475 12.055027,15.264399 C 11.904127,15.258053 11.753488,15.249544 11.603799,15.232069 C 11.661327,15.195389 11.719594,15.157481 11.785969,15.138187 C 11.894646,15.102077 12.003973,15.067036 12.111583,15.026554 C 12.001932,15.01157 11.892446,14.998208 11.783035,14.986189 C 11.733991,14.932698 11.685366,14.878659 11.637773,14.824492 C 11.739825,14.800095 11.844227,14.78686 11.947562,14.76694 C 11.846631,14.62104 11.734795,14.46503 11.753155,14.276379 C 11.813143,14.250315 11.873423,14.224335 11.934003,14.198442 C 11.956805,14.145524 11.979986,14.092683 12.003548,14.03992 z "
         style="fill:#878a87;fill-rule:nonzero;stroke:none" />
      <path
         id="path2560"
         d="M 13.436492,14.065097 C 13.53084,14.033961 13.562577,14.066937 13.531702,14.164026 C 13.43677,14.195054 13.405033,14.162078 13.436492,14.065097 z "
         style="fill:#3f4547;fill-rule:nonzero;stroke:none" />
      <path
         id="path2564"
         d="M 12.469787,14.287058 C 12.603043,14.223171 12.732258,14.15122 12.860148,14.076534 C 12.863241,14.21802 12.864397,14.359557 12.864358,14.501131 C 12.722556,14.451445 12.572259,14.40549 12.469787,14.287058 z "
         style="fill:#000202;fill-rule:nonzero;stroke:none" />
      <path
         id="path2568"
         d="M 13.605475,14.08762 C 13.779381,14.22017 13.865778,14.429016 13.978179,14.611436 C 14.191214,14.902198 13.978987,15.234096 13.825444,15.493308 C 13.818983,15.460397 13.80606,15.394574 13.7996,15.361662 C 13.796291,15.125202 13.835679,14.888427 13.808271,14.652491 C 13.784833,14.464512 13.669291,14.309644 13.588112,14.144712 L 13.605475,14.08762 z "
         style="fill:#2e2b2e;fill-rule:nonzero;stroke:none" />
      <path
         id="path2584"
         d="M 12.124945,14.467141 C 12.346973,14.517381 12.564247,14.589654 12.769633,14.690076 C 12.529607,14.714915 12.299129,14.636285 12.124945,14.467141 z "
         style="fill:#000202;fill-rule:nonzero;stroke:none" />
      <path
         id="path2600"
         d="M 12.517162,15.456212 C 12.626574,15.468231 12.73606,15.481593 12.845711,15.496577 C 12.738101,15.537059 12.628774,15.5721 12.520098,15.608209 C 12.519364,15.57021 12.517896,15.494212 12.517162,15.456212 z "
         style="fill:#2b3030;fill-rule:nonzero;stroke:none" />
      <path
         id="path2612"
         d="M 12.05985,14.926271 C 12.209538,14.943746 12.360176,14.952255 12.511076,14.958601 C 12.420652,15.031678 12.330488,15.104834 12.242375,15.180411 C 12.253381,15.0447 12.199743,14.947526 12.05985,14.926271 z "
         style="fill:#333545;fill-rule:nonzero;stroke:none" />
      <path
         sodipodi:nodetypes="cccccc"
         id="path2624"
         d="M 12.904537,15.380719 C 13.022144,15.399832 13.139816,15.421033 13.257477,15.442533 C 13.396041,15.596265 13.472387,15.613019 13.765554,15.578632 C 13.754905,15.617876 13.733605,15.696361 13.722956,15.735604 C 13.4842,15.798107 13.231161,15.757385 13.007634,15.659849 C 12.895668,15.611381 12.899074,15.484563 12.904537,15.380719 z "
         style="fill:#515e61;fill-rule:nonzero;stroke:none" />
      <path
         id="path2616"
         d="M 13.243942,15.509574 C 13.447683,15.512642 13.633422,15.425749 13.805161,15.322022 C 13.811622,15.354933 13.824545,15.420756 13.831006,15.453668 C 13.837729,15.483973 13.851176,15.544585 13.857899,15.574891 C 13.720916,15.603422 13.600181,15.673215 13.487476,15.754183 C 13.379898,15.834023 13.250945,15.868749 13.122278,15.892447 C 13.074687,15.800782 13.026855,15.709469 12.979398,15.618083 C 13.066445,15.57965 13.153758,15.541219 13.243942,15.509574 z "
         style="fill:#172830;fill-rule:nonzero;stroke:none" />
      <path
         id="path2572"
         d="M 13.180546,14.131678 C 13.293802,14.284985 13.349485,14.469792 13.425184,14.643122 C 13.481977,14.469676 13.535003,14.294939 13.593674,14.122061 C 13.674853,14.286993 13.790395,14.441861 13.813832,14.62984 C 13.84124,14.865776 13.801853,15.102551 13.80516,15.339011 C 13.633422,15.442738 13.447683,15.529632 13.243942,15.526562 C 13.198061,15.484091 13.149167,15.434328 13.082206,15.438753 C 12.850234,15.426657 12.617944,15.416001 12.387687,15.38485 C 12.514426,15.306724 12.645985,15.236964 12.774255,15.161081 C 12.651846,15.144961 12.529322,15.132992 12.406845,15.122454 C 12.562048,15.09139 12.715873,15.044099 12.843131,14.94406 C 12.717124,14.922749 12.590905,14.905359 12.464745,14.888663 C 12.689461,14.823067 12.917731,14.77083 13.149773,14.739361 C 13.137682,14.536308 13.144609,14.33211 13.180546,14.131678 z "
         style="fill:#000000;fill-rule:nonzero;stroke:none" />
      <path
         sodipodi:nodetypes="ccccccccccccccccccccc"
         id="path2576"
         d="M 27.317923,14.354884 C 27.456665,14.203967 27.613978,14.050456 27.824364,13.995541 L 27.829239,14.049939 C 27.837485,14.15165 27.845303,14.253435 27.855685,14.35512 C 27.941249,14.29597 28.026159,14.235359 28.107207,14.169957 C 28.125601,14.217544 28.146829,14.264733 28.158836,14.314642 C 28.16197,14.376093 28.164571,14.437618 28.166636,14.499219 C 28.262456,14.460888 28.357698,14.421034 28.454421,14.383154 C 28.491019,14.369454 28.528281,14.356324 28.566206,14.343765 C 28.594335,14.403433 28.622689,14.463426 28.651077,14.523488 C 28.741612,14.517358 28.832261,14.512076 28.923796,14.508125 C 28.886,14.605731 28.837256,14.700653 28.817873,14.803543 C 28.907252,14.918104 29.012843,15.020431 29.107553,15.131379 C 29.075154,15.183727 29.043333,15.235916 29.01183,15.288267 C 29.038521,15.341643 29.07244,15.393174 29.087379,15.45157 C 29.003463,15.686581 28.76904,15.822715 28.587107,15.984637 C 28.501694,16.063977 28.389453,16.113614 28.27194,16.129789 C 28.118392,16.118374 27.959602,16.111966 27.778275,16.152049 C 27.462304,15.884958 27.316214,15.618432 27.191202,15.38902 C 27.162689,15.233907 27.172231,15.022293 27.16791,14.866174 C 27.067167,14.682404 27.19966,14.497108 27.317923,14.354884 z "
         style="fill:#878787;fill-rule:nonzero;stroke:none" />
      <path
         id="path2580"
         d="M 27.753766,14.032075 C 27.856184,14.043509 28.017712,14.016876 28.031732,14.152093 C 27.950684,14.217494 27.865775,14.278106 27.78021,14.337255 C 27.769828,14.23557 27.762009,14.133785 27.753766,14.032075 z "
         style="fill:#000002;fill-rule:nonzero;stroke:none" />
      <path
         sodipodi:nodetypes="ccccccccccccc"
         id="path2588"
         d="M 27.582596,14.427331 C 27.606265,14.351181 27.647027,14.2813 27.684897,14.210693 C 27.720258,14.454692 27.890091,14.637839 28.050618,14.818697 C 28.165786,14.832012 28.288189,14.821848 28.399045,14.859462 C 28.486962,14.928243 28.556586,15.015141 28.632696,15.095457 C 28.52877,15.199879 28.423144,15.302813 28.323301,15.410448 C 28.4702,15.423589 28.618004,15.432601 28.765767,15.443961 C 28.525102,15.518851 28.280644,15.581562 28.040607,15.657469 C 28.101397,15.745902 28.156515,15.838546 28.191938,15.939309 C 28.065333,15.978603 27.939599,16.019677 27.816013,16.065277 C 27.416901,15.97938 27.290656,15.640411 27.272068,15.32777 C 27.470511,15.116888 27.639973,14.884206 27.820033,14.659453 C 27.738045,14.584883 27.643166,14.519496 27.582596,14.427331 z "
         style="fill:#000000;fill-rule:nonzero;stroke:none" />
      <path
         id="path2592"
         d="M 28.072293,14.481353 C 28.070227,14.419754 28.067627,14.358227 28.064493,14.296777 C 28.164101,14.311334 28.268677,14.318721 28.360078,14.365288 C 28.263355,14.403169 28.168113,14.443024 28.072293,14.481353 z "
         style="fill:#000002;fill-rule:nonzero;stroke:none" />
      <path
         id="path2596"
         d="M 28.026755,14.698591 C 28.111267,14.563184 28.27605,14.543019 28.425175,14.520109 C 28.3942,14.58332 28.372368,14.651957 28.326179,14.706933 C 28.228753,14.743743 28.124315,14.713697 28.026755,14.698591 z "
         style="fill:#000202;fill-rule:nonzero;stroke:none" />
      <path
         id="path2604"
         d="M 27.254111,14.853994 C 27.300998,14.829593 27.3483,14.805165 27.396019,14.780711 C 27.359972,14.874103 27.367359,15.012207 27.24351,15.042885 C 27.246242,14.979863 27.249777,14.916899 27.254111,14.853994 z "
         style="fill:#000202;fill-rule:nonzero;stroke:none" />
      <path
         id="path2608"
         d="M 27.16791,14.864962 C 27.21536,15.015976 27.243556,15.171443 27.272068,15.326557 C 27.333785,15.618781 27.486985,15.973062 27.816013,16.064064 C 27.964993,16.100545 28.118392,16.117161 28.271942,16.128576 C 28.111471,16.226813 27.949055,16.352589 27.745673,16.335419 C 27.581815,16.128331 27.399202,15.929835 27.330203,15.67243 C 27.269807,15.653525 27.209609,15.635426 27.149615,15.618133 C 27.118748,15.366266 27.09065,15.112498 27.16791,14.864962 z "
         style="fill:#333545;fill-rule:nonzero;stroke:none" />
      <path
         id="path2620"
         d="M 28.612572,15.188911 C 28.761302,15.094244 28.763661,15.31776 28.62689,15.326534 C 28.518158,15.358558 28.53601,15.211851 28.612572,15.188911 z "
         style="fill:#3a3a3a;fill-rule:nonzero;stroke:none" />
      <path
         id="path2628"
         d="M 28.18216,15.679874 C 28.314263,15.641707 28.452274,15.624402 28.590777,15.633334 C 28.59923,15.664975 28.616131,15.728257 28.624581,15.759898 C 28.473202,15.755457 28.322911,15.732904 28.18216,15.679874 z "
         style="fill:#000202;fill-rule:nonzero;stroke:none" />
      <g
         transform="matrix(1.5128876,0,0,1.4968583,-18.39847,9.027604)"
         id="g4101">
        <path
           style="fill:#8a8a8a;fill-rule:nonzero;stroke:none"
           d="M 26.944708,6.7737324 C 27.095793,6.5990954 27.204569,6.3552736 27.431912,6.2697156 C 27.572428,6.2966637 27.671365,6.4394258 27.805481,6.497273 C 28.039284,6.6009213 28.124398,6.8818524 28.088464,7.1190861 C 28.05624,7.3283671 28.003297,7.5442893 27.886446,7.7232765 C 27.713719,7.891374 27.469665,7.9681696 27.240092,8.019929 C 27.044282,7.9616498 26.932367,7.7724688 26.84041,7.6039596 C 26.775013,7.4794149 26.649408,7.3946095 26.59679,7.2641546 C 26.652719,7.0970892 26.757312,6.952913 26.84621,6.8024647 C 26.783348,6.7865848 26.72079,6.7708692 26.658536,6.7553172 C 26.681837,6.6874298 26.693381,6.6125191 26.740818,6.555618 C 26.810422,6.6264213 26.878165,6.6995522 26.944708,6.7737324 z "
           id="path2632" />
        <path
           style="fill:#000000;fill-rule:nonzero;stroke:none"
           d="M 27.18794,6.7016018 C 27.409629,6.719788 27.686113,6.6518848 27.854026,6.8443672 C 28.037526,7.1282997 27.84419,7.5255261 27.567358,7.6501303 C 27.421753,7.72432 27.256473,7.6793263 27.113324,7.6233621 C 26.980689,7.5737109 26.90576,7.4403501 26.818654,7.3340109 C 26.921384,7.1144253 27.009316,6.8642296 27.18794,6.7016018 z "
           id="path2640" />
      </g>
      <g
         transform="matrix(1.2138708,0,0,1.1381187,-9.9971826,11.261502)"
         id="g4105">
        <path
           style="fill:#8a8a8a;fill-rule:nonzero;stroke:none"
           d="M 22.052087,6.1510833 C 22.16209,6.067092 22.302359,6.1389699 22.395685,6.2168667 C 22.551489,6.3607437 22.671575,6.5418694 22.811787,6.7022203 C 22.896892,6.5872252 22.989447,6.4782464 23.095335,6.3841403 C 23.172803,6.5796785 23.121116,6.7965046 23.170723,6.9967739 C 23.330975,7.1683062 23.542075,7.2775241 23.687759,7.4667241 C 23.573064,7.4532723 23.459725,7.4337775 23.346784,7.4120706 C 23.400843,7.6478987 23.150057,7.7313129 23.033531,7.8784019 C 22.825287,8.1323704 22.688885,8.4757923 22.390687,8.6306704 C 22.211897,8.676562 21.97231,8.7073451 21.864729,8.508817 C 21.563584,8.1977443 21.375355,7.7964648 21.224188,7.3859061 C 21.195672,7.1495169 21.306422,6.9231975 21.45662,6.7570657 C 21.645451,6.5456474 21.824308,6.3168446 22.052087,6.1510833 z "
           id="path2636" />
        <path
           style="fill:#000000;fill-rule:nonzero;stroke:none"
           d="M 21.727705,6.7819437 C 21.967966,6.6927463 22.232535,6.7151441 22.470941,6.6138518 C 22.682519,6.846278 22.81539,7.1409867 22.999101,7.3964446 C 23.07295,7.4846425 23.076176,7.6241174 23.00689,7.7164823 C 22.764549,8.0394884 22.353364,8.2631827 21.962631,8.1456534 C 21.67841,8.029181 21.499284,7.7115872 21.462108,7.3995762 C 21.433527,7.1662334 21.501866,6.875837 21.727705,6.7819437 z "
           id="path2644" />
      </g>
      <path
         sodipodi:nodetypes="cccccccccccc"
         id="path2648"
         d="M 18.145657,24.17378 C 18.274775,23.871653 18.588336,23.762542 18.880153,23.697598 C 18.892132,23.730004 18.916088,23.794813 18.928067,23.827218 C 19.244138,23.859456 19.570514,23.695223 19.870316,23.848012 C 20.041272,23.710986 20.248608,23.754442 20.432713,23.837687 C 20.550454,23.907217 20.669707,23.827166 20.780769,23.783802 C 21.036149,23.988476 21.206301,24.334937 21.565091,24.360775 C 21.63795,24.686794 21.516469,25.01245 21.401113,25.312183 C 21.340227,25.473242 21.231176,25.616007 21.074078,25.68822 C 20.877308,24.986557 18.801269,24.450243 18.037559,25.03232 C 17.854126,24.778453 17.881487,24.451767 17.882589,24.154514 C 17.969922,24.160298 18.057726,24.167125 18.145657,24.17378 z "
         style="fill:#8a8a8a;fill-rule:nonzero;stroke:none" />
      <path
         sodipodi:nodetypes="ccccczczzcczzzzzcczzczzc"
         id="path2652"
         d="M 17.99071,24.36925 C 18.296404,24.279066 18.584355,24.108161 18.910292,24.10572 C 19.447267,24.100564 19.987217,24.09652 20.521276,24.162599 C 20.741303,24.185085 20.91062,24.338189 21.083427,24.462829 C 21.19889,24.570401 21.357574,24.491892 21.493469,24.486158 C 21.42296,24.919204 21.389083,25.46208 21.074078,25.733525 C 20.759072,26.004967 20.384891,26.032245 20.07706,26.253118 C 20.249041,26.401929 20.482884,26.361755 20.692193,26.283883 C 20.901504,26.206009 21.144585,26.328772 21.390002,26.164396 C 21.635419,26.000021 21.953734,25.668935 22.320002,25.613214 C 22.375917,25.709391 22.436716,25.802757 22.49704,25.896733 C 22.244276,26.208705 21.877092,26.39793 21.6187,26.699247 C 21.360309,27.000564 21.17043,27.303387 20.934131,27.662635 C 20.697829,28.021882 20.221629,28.130152 19.727887,28.103774 C 19.234148,28.077398 18.679734,27.637371 18.42762,27.282614 C 18.175507,26.927857 17.970481,26.716969 17.728534,26.519093 C 17.486588,26.321217 17.2913,26.150305 17.167496,25.891746 C 17.096785,25.766042 17.178212,25.628295 17.203305,25.502417 C 17.365276,25.494141 17.43048,25.443227 17.626693,25.668905 C 17.822904,25.894584 18.401606,26.175004 18.713448,26.290733 C 19.025288,26.406463 19.16362,26.253702 19.395799,26.271435 C 19.149458,26.064909 18.839972,25.940026 18.573067,25.775503 C 18.306159,25.610981 18.0994,25.342381 18.037559,25.077625 C 17.975716,24.812866 17.987685,24.606016 17.99071,24.36925 z "
         style="fill:#000000;fill-rule:nonzero;stroke:none" />
      <path
         id="path2660"
         d="M 19.279568,28.24024 C 19.683031,28.19962 20.091293,28.202301 20.495138,28.239058 C 20.436099,28.287408 20.379934,28.35259 20.297418,28.350423 C 20.024444,28.370572 19.749006,28.371046 19.476481,28.348162 C 19.396146,28.346694 19.339572,28.283852 19.279568,28.24024 z "
         style="fill:#c2c2c2;fill-rule:nonzero;stroke:none" />
    </g>
  </g>
</svg>
